<svg xmlns="http://www.w3.org/2000/svg" xmlns:xlink="http://www.w3.org/1999/xlink" width="2000" zoomAndPan="magnify" viewBox="0 0 1500 1499.999933" height="2000" preserveAspectRatio="xMidYMid meet" version="1.0"><defs><clipPath id="907dc536c0"><path d="M 101.199219 128.683594 L 1398.800781 128.683594 L 1398.800781 1426.289062 L 101.199219 1426.289062 Z M 101.199219 128.683594 " clip-rule="nonzero"/></clipPath><clipPath id="6061b10d9b"><path d="M 750 128.683594 C 391.675781 128.683594 101.199219 419.160156 101.199219 777.484375 C 101.199219 1135.808594 391.675781 1426.289062 750 1426.289062 C 1108.324219 1426.289062 1398.800781 1135.808594 1398.800781 777.484375 C 1398.800781 419.160156 1108.324219 128.683594 750 128.683594 " clip-rule="nonzero"/></clipPath><clipPath id="2583dcb142"><path d="M 0 98 L 1500 98 L 1500 1449.960938 L 0 1449.960938 Z M 0 98 " clip-rule="nonzero"/></clipPath></defs><g clip-path="url(#907dc536c0)"><g clip-path="url(#6061b10d9b)"><path fill="#ffffff" d="M 101.199219 128.683594 L 1398.800781 128.683594 L 1398.800781 1426.289062 L 101.199219 1426.289062 Z M 101.199219 128.683594 " fill-opacity="1" fill-rule="nonzero"/></g></g><g clip-path="url(#2583dcb142)"><path fill="#000000" d="M 758.125 276.070312 C 892.195312 278.441406 1013.398438 333.734375 1101.542969 421.976562 C 1188.96875 509.292969 1244.058594 629.148438 1247.355469 761.769531 C 1322.421875 766.917969 1408.921875 768.976562 1508.601562 768.976562 L 1508.601562 779.375 C 1408.921875 779.375 1322.421875 781.4375 1247.355469 786.585938 C 1244.058594 919.207031 1188.96875 1038.957031 1101.542969 1126.375 C 1013.398438 1214.621094 892.195312 1269.914062 758.125 1272.179688 C 755.859375 1325.722656 755.136719 1384.722656 755.136719 1450.003906 L 743.398438 1450.003906 C 743.398438 1384.722656 742.78125 1325.722656 740.515625 1272.179688 C 606.445312 1269.914062 485.242188 1214.621094 396.996094 1126.375 C 309.570312 1038.957031 254.582031 919.207031 251.285156 786.585938 C 176.113281 781.4375 89.617188 779.375 -9.960938 779.375 L -9.960938 768.976562 C 89.617188 768.976562 176.113281 766.917969 251.285156 761.769531 C 254.582031 629.148438 309.570312 509.292969 396.996094 421.976562 C 485.242188 333.734375 606.445312 278.441406 740.515625 276.070312 C 742.78125 222.632812 743.398438 163.632812 743.398438 98.351562 L 755.136719 98.351562 C 755.136719 163.632812 755.859375 222.632812 758.125 276.070312 Z M 267.660156 760.535156 C 354.570312 753.945312 425.722656 742.925781 483.90625 725.730469 C 489.980469 608.347656 517.578125 502.910156 559.382812 423.933594 C 589.351562 367.09375 626.625 323.644531 668.539062 299.035156 C 567.828125 316.023438 477.726562 364.316406 408.527344 433.40625 C 324.292969 517.632812 271.160156 632.855469 267.660156 760.535156 Z M 500.484375 720.480469 C 678.835938 661.582031 727.644531 537.917969 739.796875 292.648438 C 675.4375 297.386719 616.945312 349.488281 573.699219 431.449219 C 533.742188 507.132812 506.96875 608.039062 500.484375 720.480469 Z M 758.84375 292.648438 C 770.996094 537.917969 819.804688 661.582031 998.15625 720.480469 C 991.566406 608.039062 964.898438 507.132812 924.941406 431.449219 C 881.695312 349.488281 823.203125 297.386719 758.84375 292.648438 Z M 1014.734375 725.730469 C 1072.917969 742.925781 1144.070312 753.945312 1230.980469 760.535156 C 1227.480469 632.957031 1174.242188 517.632812 1090.113281 433.40625 C 1020.914062 364.316406 930.8125 316.023438 830.105469 299.035156 C 871.910156 323.644531 909.289062 367.09375 939.257812 423.933594 C 980.960938 502.910156 1008.660156 608.347656 1014.734375 725.730469 Z M 1230.980469 787.71875 C 1144.070312 794.410156 1072.917969 805.425781 1014.734375 822.625 C 1008.660156 939.902344 980.960938 1045.445312 939.257812 1124.421875 C 909.289062 1181.257812 871.910156 1224.609375 830.105469 1249.320312 C 930.8125 1232.332031 1020.914062 1184.039062 1090.113281 1114.949219 C 1174.242188 1030.71875 1227.480469 915.398438 1230.980469 787.71875 Z M 998.15625 827.769531 C 819.804688 886.667969 770.996094 1010.332031 758.84375 1255.703125 C 823.203125 1250.96875 881.695312 1198.761719 924.941406 1116.902344 C 964.898438 1041.121094 991.566406 940.316406 998.15625 827.769531 Z M 739.796875 1255.703125 C 727.644531 1010.332031 678.835938 886.667969 500.484375 827.769531 C 506.96875 940.316406 533.742188 1041.121094 573.699219 1116.902344 C 616.945312 1198.761719 675.4375 1250.96875 739.796875 1255.703125 Z M 483.90625 822.625 C 425.722656 805.425781 354.464844 794.410156 267.660156 787.71875 C 271.160156 915.398438 324.292969 1030.71875 408.527344 1114.949219 C 477.726562 1184.039062 567.828125 1232.332031 668.539062 1249.320312 C 626.625 1224.609375 589.351562 1181.257812 559.382812 1124.421875 C 517.578125 1045.339844 489.980469 939.902344 483.90625 822.625 " fill-opacity="1" fill-rule="nonzero"/></g></svg>