<svg xmlns="http://www.w3.org/2000/svg" xmlns:xlink="http://www.w3.org/1999/xlink" width="1000" zoomAndPan="magnify" viewBox="0 0 750 1199.999942" height="1600" preserveAspectRatio="xMidYMid meet" version="1.0"><defs><clipPath id="0be848407b"><path d="M 26.613281 503.398438 L 723.363281 503.398438 L 723.363281 1200 L 26.613281 1200 Z M 26.613281 503.398438 " clip-rule="nonzero"/></clipPath></defs><g clip-path="url(#0be848407b)"><path fill="#000000" d="M 374.988281 503.398438 C 369.289062 503.398438 363.589844 503.539062 357.894531 503.820312 C 352.203125 504.097656 346.515625 504.519531 340.84375 505.078125 C 335.167969 505.636719 329.511719 506.332031 323.871094 507.171875 C 318.234375 508.007812 312.617188 508.980469 307.023438 510.09375 C 301.433594 511.207031 295.871094 512.453125 290.339844 513.839844 C 284.8125 515.226562 279.316406 516.746094 273.863281 518.398438 C 268.40625 520.054688 262.992188 521.84375 257.625 523.765625 C 252.257812 525.683594 246.941406 527.734375 241.671875 529.917969 C 236.40625 532.101562 231.195312 534.410156 226.039062 536.847656 C 220.886719 539.285156 215.796875 541.847656 210.765625 544.535156 C 205.738281 547.222656 200.78125 550.03125 195.890625 552.964844 C 191 555.894531 186.183594 558.945312 181.441406 562.109375 C 176.703125 565.277344 172.042969 568.5625 167.464844 571.957031 C 162.882812 575.351562 158.390625 578.859375 153.984375 582.476562 C 149.574219 586.09375 145.261719 589.816406 141.035156 593.644531 C 136.8125 597.472656 132.683594 601.40625 128.652344 605.4375 C 124.621094 609.46875 120.691406 613.59375 116.859375 617.820312 C 113.03125 622.042969 109.308594 626.359375 105.691406 630.769531 C 102.074219 635.175781 98.570312 639.667969 95.171875 644.246094 C 91.777344 648.828125 88.492188 653.488281 85.328125 658.226562 C 82.160156 662.96875 79.109375 667.785156 76.179688 672.671875 C 73.246094 677.5625 70.4375 682.523438 67.75 687.550781 C 65.0625 692.578125 62.5 697.671875 60.0625 702.824219 C 57.625 707.980469 55.316406 713.191406 53.132812 718.457031 C 50.953125 723.722656 48.898438 729.042969 46.980469 734.410156 C 45.058594 739.777344 43.269531 745.191406 41.617188 750.644531 C 39.960938 756.101562 38.441406 761.59375 37.054688 767.125 C 35.667969 772.65625 34.421875 778.21875 33.308594 783.808594 C 32.195312 789.402344 31.222656 795.015625 30.386719 800.65625 C 29.550781 806.296875 28.851562 811.953125 28.292969 817.628906 C 27.734375 823.300781 27.3125 828.984375 27.035156 834.679688 C 26.753906 840.375 26.613281 846.074219 26.613281 851.773438 C 26.613281 857.476562 26.753906 863.171875 27.035156 868.867188 C 27.3125 874.5625 27.734375 880.246094 28.292969 885.921875 C 28.851562 891.59375 29.550781 897.25 30.386719 902.890625 C 31.222656 908.53125 32.195312 914.148438 33.308594 919.738281 C 34.421875 925.332031 35.667969 930.890625 37.054688 936.421875 C 38.441406 941.953125 39.960938 947.445312 41.617188 952.902344 C 43.269531 958.359375 45.058594 963.769531 46.980469 969.136719 C 48.898438 974.507812 50.953125 979.824219 53.132812 985.089844 C 55.316406 990.359375 57.625 995.570312 60.0625 1000.722656 C 62.5 1005.878906 65.0625 1010.96875 67.75 1015.996094 C 70.4375 1021.023438 73.246094 1025.984375 76.179688 1030.875 C 79.109375 1035.765625 82.160156 1040.582031 85.328125 1045.320312 C 88.492188 1050.0625 91.777344 1054.722656 95.171875 1059.300781 C 98.570312 1063.878906 102.074219 1068.375 105.691406 1072.78125 C 109.308594 1077.1875 113.03125 1081.503906 116.859375 1085.730469 C 120.691406 1089.953125 124.621094 1094.082031 128.652344 1098.113281 C 132.683594 1102.144531 136.8125 1106.074219 141.035156 1109.902344 C 145.261719 1113.730469 149.574219 1117.453125 153.984375 1121.070312 C 158.390625 1124.6875 162.882812 1128.195312 167.464844 1131.589844 C 172.042969 1134.988281 176.703125 1138.269531 181.441406 1141.4375 C 186.183594 1144.605469 191 1147.652344 195.890625 1150.585938 C 200.78125 1153.515625 205.738281 1156.324219 210.765625 1159.011719 C 215.796875 1161.699219 220.886719 1164.265625 226.039062 1166.703125 C 231.195312 1169.140625 236.40625 1171.449219 241.671875 1173.628906 C 246.941406 1175.8125 252.257812 1177.863281 257.625 1179.785156 C 262.992188 1181.707031 268.40625 1183.492188 273.863281 1185.148438 C 279.316406 1186.804688 284.8125 1188.324219 290.339844 1189.707031 C 295.871094 1191.09375 301.433594 1192.34375 307.023438 1193.457031 C 312.617188 1194.566406 318.234375 1195.542969 323.871094 1196.378906 C 329.511719 1197.214844 335.167969 1197.914062 340.84375 1198.472656 C 346.515625 1199.03125 352.203125 1199.449219 357.894531 1199.730469 C 363.589844 1200.007812 369.289062 1200.148438 374.988281 1200.148438 C 380.691406 1200.148438 386.390625 1200.007812 392.082031 1199.730469 C 397.777344 1199.449219 403.460938 1199.03125 409.136719 1198.472656 C 414.808594 1197.914062 420.46875 1197.214844 426.105469 1196.378906 C 431.746094 1195.542969 437.363281 1194.566406 442.953125 1193.457031 C 448.546875 1192.34375 454.105469 1191.09375 459.636719 1189.707031 C 465.167969 1188.324219 470.660156 1186.804688 476.117188 1185.148438 C 481.574219 1183.492188 486.984375 1181.707031 492.355469 1179.785156 C 497.722656 1177.863281 503.039062 1175.8125 508.308594 1173.628906 C 513.574219 1171.449219 518.785156 1169.140625 523.9375 1166.703125 C 529.09375 1164.265625 534.183594 1161.699219 539.210938 1159.011719 C 544.242188 1156.324219 549.199219 1153.515625 554.089844 1150.585938 C 558.980469 1147.652344 563.796875 1144.605469 568.535156 1141.4375 C 573.277344 1138.269531 577.9375 1134.988281 582.515625 1131.589844 C 587.097656 1128.195312 591.589844 1124.6875 595.996094 1121.070312 C 600.402344 1117.453125 604.71875 1113.730469 608.945312 1109.902344 C 613.167969 1106.074219 617.296875 1102.144531 621.328125 1098.113281 C 625.359375 1094.082031 629.289062 1089.953125 633.117188 1085.730469 C 636.949219 1081.503906 640.671875 1077.1875 644.289062 1072.78125 C 647.902344 1068.375 651.410156 1063.878906 654.808594 1059.300781 C 658.203125 1054.722656 661.484375 1050.0625 664.652344 1045.320312 C 667.820312 1040.582031 670.871094 1035.765625 673.800781 1030.875 C 676.730469 1025.984375 679.542969 1021.023438 682.230469 1015.996094 C 684.917969 1010.96875 687.480469 1005.878906 689.917969 1000.722656 C 692.355469 995.570312 694.664062 990.359375 696.847656 985.089844 C 699.027344 979.824219 701.078125 974.507812 703 969.136719 C 704.921875 963.769531 706.707031 958.359375 708.363281 952.902344 C 710.019531 947.445312 711.539062 941.953125 712.925781 936.421875 C 714.308594 930.890625 715.558594 925.332031 716.671875 919.738281 C 717.78125 914.148438 718.757812 908.53125 719.59375 902.890625 C 720.429688 897.25 721.128906 891.59375 721.6875 885.921875 C 722.246094 880.246094 722.664062 874.5625 722.945312 868.867188 C 723.226562 863.171875 723.363281 857.476562 723.363281 851.773438 C 723.359375 846.074219 723.210938 840.378906 722.925781 834.6875 C 722.640625 828.992188 722.214844 823.3125 721.652344 817.640625 C 721.085938 811.96875 720.382812 806.3125 719.542969 800.675781 C 718.699219 795.039062 717.722656 789.425781 716.605469 783.835938 C 715.488281 778.25 714.234375 772.691406 712.847656 767.160156 C 711.457031 761.632812 709.933594 756.144531 708.273438 750.691406 C 706.617188 745.238281 704.824219 739.828125 702.902344 734.464844 C 700.976562 729.097656 698.925781 723.785156 696.738281 718.519531 C 694.554688 713.253906 692.242188 708.046875 689.804688 702.894531 C 687.363281 697.742188 684.800781 692.65625 682.113281 687.628906 C 679.421875 682.605469 676.613281 677.648438 673.679688 672.761719 C 670.75 667.871094 667.699219 663.058594 664.53125 658.320312 C 661.363281 653.582031 658.082031 648.925781 654.683594 644.347656 C 651.289062 639.769531 647.78125 635.28125 644.164062 630.875 C 640.550781 626.46875 636.828125 622.15625 633 617.933594 C 629.171875 613.710938 625.242188 609.582031 621.210938 605.550781 C 617.179688 601.523438 613.054688 597.59375 608.832031 593.765625 C 604.609375 589.9375 600.296875 586.214844 595.890625 582.597656 C 591.484375 578.980469 586.992188 575.476562 582.414062 572.078125 C 577.839844 568.683594 573.179688 565.402344 568.441406 562.234375 C 563.703125 559.066406 558.890625 556.015625 554.003906 553.082031 C 549.117188 550.152344 544.160156 547.339844 539.132812 544.652344 C 534.109375 541.964844 529.019531 539.398438 523.867188 536.960938 C 518.71875 534.519531 513.511719 532.207031 508.246094 530.023438 C 502.980469 527.839844 497.664062 525.785156 492.300781 523.863281 C 486.933594 521.9375 481.527344 520.148438 476.074219 518.488281 C 470.621094 516.832031 465.128906 515.308594 459.601562 513.917969 C 454.074219 512.527344 448.515625 511.277344 442.925781 510.160156 C 437.335938 509.042969 431.722656 508.0625 426.085938 507.222656 C 420.449219 506.378906 414.796875 505.675781 409.125 505.113281 C 403.453125 504.546875 397.769531 504.125 392.078125 503.835938 C 386.386719 503.550781 380.6875 503.40625 374.988281 503.398438 Z M 374.988281 1158.175781 C 369.976562 1158.175781 364.964844 1158.054688 359.957031 1157.808594 C 354.945312 1157.5625 349.949219 1157.191406 344.957031 1156.699219 C 339.964844 1156.210938 334.992188 1155.59375 330.03125 1154.859375 C 325.070312 1154.125 320.132812 1153.265625 315.214844 1152.289062 C 310.296875 1151.308594 305.40625 1150.210938 300.539062 1148.992188 C 295.675781 1147.773438 290.84375 1146.4375 286.046875 1144.980469 C 281.246094 1143.527344 276.488281 1141.953125 271.765625 1140.265625 C 267.042969 1138.574219 262.367188 1136.769531 257.734375 1134.851562 C 253.101562 1132.933594 248.519531 1130.902344 243.984375 1128.757812 C 239.453125 1126.613281 234.976562 1124.359375 230.554688 1121.996094 C 226.128906 1119.632812 221.769531 1117.160156 217.46875 1114.582031 C 213.167969 1112.003906 208.929688 1109.324219 204.761719 1106.539062 C 200.59375 1103.75 196.492188 1100.867188 192.464844 1097.878906 C 188.4375 1094.890625 184.488281 1091.808594 180.609375 1088.625 C 176.734375 1085.445312 172.9375 1082.171875 169.222656 1078.804688 C 165.507812 1075.433594 161.875 1071.980469 158.332031 1068.433594 C 154.785156 1064.886719 151.328125 1061.257812 147.960938 1057.539062 C 144.59375 1053.824219 141.320312 1050.03125 138.136719 1046.152344 C 134.957031 1042.277344 131.871094 1038.324219 128.886719 1034.296875 C 125.898438 1030.269531 123.011719 1026.171875 120.226562 1022 C 117.441406 1017.832031 114.757812 1013.597656 112.179688 1009.296875 C 109.601562 1004.996094 107.132812 1000.632812 104.769531 996.210938 C 102.402344 991.789062 100.148438 987.3125 98.007812 982.777344 C 95.863281 978.246094 93.832031 973.660156 91.910156 969.027344 C 89.992188 964.394531 88.1875 959.71875 86.5 954.996094 C 84.808594 950.277344 83.238281 945.515625 81.78125 940.71875 C 80.324219 935.917969 78.988281 931.085938 77.769531 926.222656 C 76.550781 921.359375 75.453125 916.46875 74.476562 911.550781 C 73.496094 906.632812 72.640625 901.691406 71.90625 896.730469 C 71.167969 891.773438 70.554688 886.796875 70.0625 881.804688 C 69.570312 876.816406 69.203125 871.816406 68.957031 866.808594 C 68.710938 861.800781 68.589844 856.789062 68.589844 851.773438 C 68.589844 846.757812 68.710938 841.746094 68.957031 836.738281 C 69.203125 831.730469 69.570312 826.730469 70.0625 821.742188 C 70.554688 816.75 71.167969 811.777344 71.90625 806.816406 C 72.640625 801.855469 73.496094 796.914062 74.476562 791.996094 C 75.453125 787.078125 76.550781 782.1875 77.769531 777.324219 C 78.988281 772.460938 80.324219 767.628906 81.78125 762.828125 C 83.238281 758.03125 84.808594 753.269531 86.5 748.550781 C 88.1875 743.828125 89.992188 739.152344 91.910156 734.519531 C 93.832031 729.886719 95.863281 725.304688 98.007812 720.769531 C 100.148438 716.238281 102.402344 711.757812 104.769531 707.335938 C 107.132812 702.914062 109.601562 698.554688 112.179688 694.25 C 114.757812 689.949219 117.441406 685.714844 120.226562 681.546875 C 123.011719 677.375 125.898438 673.277344 128.886719 669.25 C 131.871094 665.222656 134.957031 661.269531 138.136719 657.394531 C 141.320312 653.519531 144.59375 649.722656 147.960938 646.007812 C 151.328125 642.292969 154.785156 638.660156 158.332031 635.113281 C 161.878906 631.570312 165.507812 628.113281 169.222656 624.746094 C 172.9375 621.378906 176.734375 618.101562 180.609375 614.921875 C 184.488281 611.742188 188.4375 608.65625 192.464844 605.667969 C 196.496094 602.683594 200.59375 599.796875 204.761719 597.011719 C 208.933594 594.222656 213.167969 591.542969 217.46875 588.964844 C 221.769531 586.386719 226.128906 583.914062 230.554688 581.550781 C 234.976562 579.1875 239.453125 576.933594 243.988281 574.789062 C 248.519531 572.644531 253.101562 570.613281 257.734375 568.695312 C 262.367188 566.777344 267.046875 564.972656 271.765625 563.28125 C 276.488281 561.59375 281.246094 560.019531 286.046875 558.566406 C 290.84375 557.109375 295.675781 555.773438 300.539062 554.554688 C 305.40625 553.335938 310.296875 552.238281 315.214844 551.257812 C 320.132812 550.28125 325.070312 549.425781 330.03125 548.6875 C 334.992188 547.953125 339.96875 547.339844 344.957031 546.847656 C 349.949219 546.355469 354.949219 545.988281 359.957031 545.742188 C 364.964844 545.496094 369.976562 545.371094 374.988281 545.371094 C 380.003906 545.371094 385.015625 545.496094 390.023438 545.742188 C 395.03125 545.988281 400.03125 546.355469 405.023438 546.847656 C 410.011719 547.339844 414.988281 547.953125 419.949219 548.6875 C 424.910156 549.425781 429.847656 550.28125 434.765625 551.257812 C 439.683594 552.238281 444.574219 553.335938 449.441406 554.554688 C 454.304688 555.773438 459.136719 557.109375 463.933594 558.566406 C 468.734375 560.019531 473.492188 561.59375 478.214844 563.28125 C 482.933594 564.972656 487.613281 566.777344 492.246094 568.695312 C 496.878906 570.613281 501.460938 572.644531 505.992188 574.789062 C 510.527344 576.933594 515.003906 579.1875 519.425781 581.550781 C 523.847656 583.914062 528.210938 586.386719 532.511719 588.964844 C 536.8125 591.542969 541.046875 594.222656 545.21875 597.011719 C 549.386719 599.796875 553.484375 602.683594 557.511719 605.667969 C 561.542969 608.65625 565.492188 611.742188 569.371094 614.921875 C 573.246094 618.101562 577.042969 621.378906 580.757812 624.746094 C 584.472656 628.113281 588.101562 631.570312 591.648438 635.113281 C 595.195312 638.660156 598.652344 642.292969 602.019531 646.007812 C 605.386719 649.722656 608.660156 653.519531 611.84375 657.394531 C 615.023438 661.269531 618.109375 665.222656 621.09375 669.25 C 624.082031 673.277344 626.96875 677.375 629.753906 681.546875 C 632.539062 685.714844 635.222656 689.949219 637.800781 694.25 C 640.378906 698.554688 642.847656 702.914062 645.210938 707.335938 C 647.578125 711.757812 649.832031 716.238281 651.972656 720.769531 C 654.117188 725.304688 656.148438 729.886719 658.070312 734.519531 C 659.988281 739.152344 661.792969 743.828125 663.480469 748.550781 C 665.171875 753.273438 666.742188 758.03125 668.199219 762.832031 C 669.65625 767.628906 670.992188 772.460938 672.210938 777.324219 C 673.429688 782.1875 674.527344 787.078125 675.503906 792 C 676.484375 796.917969 677.339844 801.855469 678.074219 806.816406 C 678.8125 811.777344 679.425781 816.75 679.917969 821.742188 C 680.410156 826.730469 680.777344 831.730469 681.023438 836.738281 C 681.269531 841.75 681.390625 846.761719 681.390625 851.773438 C 681.386719 856.789062 681.257812 861.796875 681.007812 866.804688 C 680.753906 871.808594 680.382812 876.808594 679.886719 881.796875 C 679.390625 886.785156 678.769531 891.757812 678.03125 896.714844 C 677.292969 901.671875 676.429688 906.609375 675.449219 911.527344 C 674.464844 916.441406 673.363281 921.332031 672.140625 926.191406 C 670.921875 931.054688 669.578125 935.882812 668.121094 940.679688 C 666.664062 945.476562 665.085938 950.234375 663.394531 954.953125 C 661.703125 959.671875 659.898438 964.34375 657.976562 968.976562 C 656.054688 973.605469 654.023438 978.1875 651.878906 982.71875 C 649.730469 987.246094 647.476562 991.722656 645.109375 996.144531 C 642.746094 1000.5625 640.273438 1004.921875 637.695312 1009.222656 C 635.117188 1013.519531 632.433594 1017.753906 629.648438 1021.921875 C 626.863281 1026.089844 623.976562 1030.183594 620.988281 1034.210938 C 618 1038.238281 614.917969 1042.1875 611.738281 1046.0625 C 608.554688 1049.9375 605.28125 1053.730469 601.914062 1057.445312 C 598.546875 1061.160156 595.09375 1064.789062 591.546875 1068.332031 C 588.003906 1071.878906 584.375 1075.332031 580.660156 1078.699219 C 576.945312 1082.066406 573.152344 1085.339844 569.277344 1088.519531 C 565.402344 1091.703125 561.453125 1094.785156 557.425781 1097.773438 C 553.398438 1100.757812 549.304688 1103.644531 545.136719 1106.433594 C 540.96875 1109.21875 536.734375 1111.902344 532.4375 1114.480469 C 528.136719 1117.058594 523.777344 1119.53125 519.359375 1121.894531 C 514.9375 1124.261719 510.464844 1126.515625 505.933594 1128.660156 C 501.402344 1130.804688 496.820312 1132.839844 492.191406 1134.761719 C 487.5625 1136.679688 482.886719 1138.488281 478.167969 1140.179688 C 473.449219 1141.871094 468.691406 1143.445312 463.894531 1144.90625 C 459.097656 1146.363281 454.269531 1147.703125 449.410156 1148.925781 C 444.546875 1150.148438 439.65625 1151.25 434.742188 1152.230469 C 429.824219 1153.214844 424.890625 1154.074219 419.929688 1154.816406 C 414.972656 1155.554688 410 1156.171875 405.011719 1156.667969 C 400.023438 1157.164062 395.027344 1157.539062 390.019531 1157.789062 C 385.011719 1158.042969 380.003906 1158.171875 374.988281 1158.175781 Z M 403.847656 851.773438 C 403.847656 852.71875 403.800781 853.664062 403.707031 854.601562 C 403.613281 855.542969 403.476562 856.476562 403.292969 857.402344 C 403.105469 858.332031 402.878906 859.246094 402.605469 860.152344 C 402.328125 861.054688 402.011719 861.945312 401.648438 862.816406 C 401.289062 863.691406 400.882812 864.542969 400.4375 865.378906 C 399.992188 866.210938 399.507812 867.019531 398.984375 867.804688 C 398.457031 868.59375 397.894531 869.351562 397.296875 870.082031 C 396.695312 870.8125 396.0625 871.511719 395.394531 872.179688 C 394.726562 872.847656 394.027344 873.480469 393.296875 874.082031 C 392.566406 874.679688 391.808594 875.242188 391.019531 875.765625 C 390.234375 876.292969 389.425781 876.777344 388.59375 877.222656 C 387.757812 877.667969 386.90625 878.074219 386.03125 878.433594 C 385.160156 878.796875 384.269531 879.113281 383.367188 879.386719 C 382.460938 879.664062 381.546875 879.890625 380.621094 880.078125 C 379.691406 880.261719 378.757812 880.398438 377.816406 880.492188 C 376.878906 880.585938 375.933594 880.628906 374.988281 880.628906 C 374.042969 880.628906 373.101562 880.585938 372.160156 880.492188 C 371.222656 880.398438 370.285156 880.261719 369.359375 880.078125 C 368.433594 879.890625 367.515625 879.664062 366.613281 879.386719 C 365.707031 879.113281 364.820312 878.796875 363.945312 878.433594 C 363.074219 878.074219 362.21875 877.667969 361.386719 877.222656 C 360.554688 876.777344 359.742188 876.292969 358.957031 875.765625 C 358.171875 875.242188 357.414062 874.679688 356.683594 874.082031 C 355.953125 873.480469 355.253906 872.847656 354.585938 872.179688 C 353.917969 871.511719 353.28125 870.8125 352.683594 870.082031 C 352.082031 869.351562 351.523438 868.59375 350.996094 867.804688 C 350.472656 867.019531 349.984375 866.210938 349.539062 865.378906 C 349.09375 864.542969 348.691406 863.691406 348.328125 862.816406 C 347.96875 861.945312 347.648438 861.054688 347.375 860.152344 C 347.101562 859.246094 346.871094 858.332031 346.6875 857.402344 C 346.503906 856.476562 346.363281 855.542969 346.273438 854.601562 C 346.179688 853.664062 346.132812 852.71875 346.132812 851.773438 C 346.132812 850.828125 346.179688 849.886719 346.273438 848.945312 C 346.363281 848.003906 346.503906 847.070312 346.6875 846.144531 C 346.871094 845.21875 347.101562 844.300781 347.375 843.398438 C 347.648438 842.492188 347.96875 841.605469 348.328125 840.730469 C 348.691406 839.859375 349.09375 839.003906 349.539062 838.171875 C 349.984375 837.339844 350.472656 836.527344 350.996094 835.742188 C 351.523438 834.957031 352.082031 834.199219 352.683594 833.46875 C 353.28125 832.738281 353.917969 832.039062 354.585938 831.371094 C 355.253906 830.703125 355.953125 830.066406 356.683594 829.46875 C 357.414062 828.867188 358.171875 828.304688 358.957031 827.78125 C 359.742188 827.257812 360.554688 826.769531 361.386719 826.324219 C 362.21875 825.878906 363.074219 825.476562 363.945312 825.113281 C 364.820312 824.753906 365.707031 824.433594 366.613281 824.160156 C 367.515625 823.886719 368.433594 823.65625 369.359375 823.472656 C 370.285156 823.289062 371.222656 823.148438 372.160156 823.058594 C 373.101562 822.964844 374.042969 822.917969 374.988281 822.917969 C 375.933594 822.917969 376.875 822.964844 377.816406 823.058594 C 378.757812 823.152344 379.691406 823.292969 380.617188 823.480469 C 381.542969 823.664062 382.457031 823.894531 383.363281 824.167969 C 384.265625 824.445312 385.152344 824.761719 386.027344 825.125 C 386.898438 825.488281 387.753906 825.890625 388.585938 826.335938 C 389.417969 826.78125 390.226562 827.265625 391.011719 827.792969 C 391.796875 828.316406 392.554688 828.878906 393.285156 829.480469 C 394.015625 830.078125 394.714844 830.710938 395.382812 831.378906 C 396.050781 832.046875 396.683594 832.746094 397.285156 833.476562 C 397.882812 834.207031 398.445312 834.964844 398.972656 835.75 C 399.496094 836.535156 399.980469 837.347656 400.429688 838.179688 C 400.875 839.011719 401.277344 839.863281 401.640625 840.738281 C 402 841.609375 402.320312 842.496094 402.59375 843.402344 C 402.871094 844.304688 403.101562 845.222656 403.285156 846.148438 C 403.472656 847.074219 403.609375 848.007812 403.703125 848.945312 C 403.796875 849.886719 403.84375 850.828125 403.847656 851.773438 Z M 403.847656 851.773438 " fill-opacity="1" fill-rule="nonzero"/></g><path stroke-linecap="round" transform="matrix(0.750164, 0.000000000000000092, -0.000000000000000092, 0.75, 29.867203, 417.649767)" fill="none" stroke-linejoin="miter" d="M 32.997973 32.998231 L 895.798922 32.998231 " stroke="#000000" stroke-width="66" stroke-opacity="1" stroke-miterlimit="4"/><path stroke-linecap="round" transform="matrix(0.530318, 0.530318, -0.53033, 0.53033, 375.671118, 5.289129)" fill="none" stroke-linejoin="miter" d="M 32.99974 32.997543 L 640.024599 33.001226 " stroke="#000000" stroke-width="66" stroke-opacity="1" stroke-miterlimit="4"/><path stroke-linecap="round" transform="matrix(0.529981, -0.529981, 0.53033, 0.53033, 17.403289, 361.592261)" fill="none" stroke-linejoin="miter" d="M 32.999336 33.002515 L 631.43999 32.998832 " stroke="#000000" stroke-width="66" stroke-opacity="1" stroke-miterlimit="4"/></svg>