<svg xmlns="http://www.w3.org/2000/svg" xmlns:xlink="http://www.w3.org/1999/xlink" width="1000" zoomAndPan="magnify" viewBox="0 0 750 1199.999942" height="1600" preserveAspectRatio="xMidYMid meet" version="1.0"><defs><clipPath id="1f29970a74"><path d="M 29.609375 417.300781 L 726.464844 417.300781 L 726.464844 1114.15625 L 29.609375 1114.15625 Z M 29.609375 417.300781 " clip-rule="nonzero"/></clipPath></defs><g clip-path="url(#1f29970a74)"><path fill="#000000" d="M 378.035156 1114.15625 C 383.738281 1114.15625 389.4375 1114.015625 395.132812 1113.734375 C 400.828125 1113.457031 406.511719 1113.035156 412.1875 1112.476562 C 417.863281 1111.917969 423.519531 1111.222656 429.160156 1110.382812 C 434.800781 1109.546875 440.417969 1108.574219 446.011719 1107.460938 C 451.601562 1106.347656 457.164062 1105.097656 462.695312 1103.714844 C 468.226562 1102.328125 473.722656 1100.808594 479.179688 1099.152344 C 484.636719 1097.496094 490.046875 1095.707031 495.417969 1093.789062 C 500.785156 1091.867188 506.105469 1089.816406 511.375 1087.632812 C 516.640625 1085.449219 521.851562 1083.140625 527.007812 1080.703125 C 532.164062 1078.265625 537.253906 1075.703125 542.285156 1073.011719 C 547.3125 1070.324219 552.273438 1067.515625 557.164062 1064.585938 C 562.054688 1061.652344 566.871094 1058.601562 571.613281 1055.433594 C 576.351562 1052.265625 581.015625 1048.984375 585.59375 1045.585938 C 590.175781 1042.191406 594.667969 1038.683594 599.074219 1035.066406 C 603.484375 1031.449219 607.800781 1027.726562 612.027344 1023.894531 C 616.25 1020.066406 620.378906 1016.136719 624.410156 1012.101562 C 628.445312 1008.070312 632.375 1003.941406 636.203125 999.71875 C 640.03125 995.492188 643.757812 991.175781 647.375 986.769531 C 650.992188 982.359375 654.5 977.867188 657.894531 973.285156 C 661.292969 968.707031 664.574219 964.046875 667.742188 959.304688 C 670.910156 954.5625 673.960938 949.746094 676.890625 944.855469 C 679.824219 939.964844 682.632812 935.003906 685.320312 929.976562 C 688.007812 924.945312 690.574219 919.855469 693.011719 914.699219 C 695.449219 909.546875 697.757812 904.332031 699.941406 899.066406 C 702.121094 893.796875 704.175781 888.480469 706.09375 883.109375 C 708.015625 877.742188 709.804688 872.328125 711.460938 866.871094 C 713.117188 861.414062 714.636719 855.921875 716.019531 850.390625 C 717.40625 844.859375 718.65625 839.296875 719.769531 833.703125 C 720.878906 828.109375 721.855469 822.492188 722.691406 816.851562 C 723.527344 811.210938 724.226562 805.554688 724.785156 799.878906 C 725.34375 794.203125 725.765625 788.519531 726.042969 782.824219 C 726.324219 777.128906 726.464844 771.429688 726.464844 765.726562 C 726.464844 760.027344 726.324219 754.328125 726.042969 748.632812 C 725.765625 742.9375 725.34375 737.25 724.785156 731.574219 C 724.226562 725.902344 723.527344 720.242188 722.691406 714.601562 C 721.855469 708.960938 720.878906 703.347656 719.769531 697.753906 C 718.65625 692.160156 717.40625 686.597656 716.019531 681.066406 C 714.636719 675.535156 713.117188 670.042969 711.460938 664.585938 C 709.804688 659.128906 708.015625 653.714844 706.09375 648.347656 C 704.175781 642.976562 702.121094 637.660156 699.941406 632.390625 C 697.757812 627.121094 695.449219 621.910156 693.011719 616.757812 C 690.574219 611.601562 688.007812 606.507812 685.320312 601.480469 C 682.632812 596.453125 679.824219 591.492188 676.890625 586.601562 C 673.960938 581.710938 670.910156 576.894531 667.742188 572.152344 C 664.574219 567.410156 661.292969 562.75 657.894531 558.171875 C 654.5 553.589844 650.992188 549.097656 647.375 544.6875 C 643.757812 540.28125 640.03125 535.964844 636.203125 531.738281 C 632.375 527.511719 628.445312 523.386719 624.410156 519.351562 C 620.378906 515.320312 616.25 511.390625 612.027344 507.558594 C 607.800781 503.730469 603.484375 500.007812 599.074219 496.390625 C 594.667969 492.773438 590.175781 489.265625 585.59375 485.867188 C 581.015625 482.472656 576.351562 479.1875 571.613281 476.019531 C 566.871094 472.851562 562.054688 469.804688 557.164062 466.871094 C 552.273438 463.941406 547.3125 461.128906 542.285156 458.441406 C 537.253906 455.753906 532.164062 453.191406 527.007812 450.753906 C 521.851562 448.316406 516.640625 446.003906 511.375 443.824219 C 506.105469 441.640625 500.785156 439.589844 495.417969 437.667969 C 490.046875 435.746094 484.636719 433.960938 479.179688 432.304688 C 473.722656 430.648438 468.226562 429.128906 462.695312 427.742188 C 457.164062 426.355469 451.601562 425.109375 446.011719 423.996094 C 440.417969 422.882812 434.800781 421.910156 429.160156 421.070312 C 423.519531 420.234375 417.863281 419.539062 412.1875 418.976562 C 406.511719 418.417969 400.828125 418 395.132812 417.71875 C 389.4375 417.441406 383.738281 417.300781 378.035156 417.300781 C 372.332031 417.300781 366.636719 417.441406 360.941406 417.71875 C 355.242188 418 349.558594 418.417969 343.882812 418.976562 C 338.210938 419.539062 332.550781 420.234375 326.910156 421.070312 C 321.269531 421.910156 315.652344 422.882812 310.0625 423.996094 C 304.46875 425.109375 298.90625 426.355469 293.375 427.742188 C 287.84375 429.128906 282.351562 430.648438 276.894531 432.304688 C 271.4375 433.960938 266.023438 435.746094 260.65625 437.667969 C 255.285156 439.589844 249.96875 441.640625 244.699219 443.824219 C 239.429688 446.003906 234.21875 448.316406 229.0625 450.753906 C 223.910156 453.191406 218.816406 455.753906 213.789062 458.441406 C 208.757812 461.128906 203.800781 463.941406 198.910156 466.871094 C 194.019531 469.804688 189.203125 472.851562 184.460938 476.019531 C 179.71875 479.1875 175.058594 482.472656 170.476562 485.867188 C 165.898438 489.265625 161.402344 492.773438 156.996094 496.390625 C 152.589844 500.007812 148.273438 503.730469 144.046875 507.558594 C 139.820312 511.390625 135.691406 515.320312 131.660156 519.351562 C 127.628906 523.386719 123.699219 527.511719 119.867188 531.738281 C 116.039062 535.964844 112.316406 540.28125 108.699219 544.6875 C 105.082031 549.097656 101.574219 553.589844 98.175781 558.171875 C 94.78125 562.75 91.496094 567.410156 88.328125 572.152344 C 85.160156 576.894531 82.113281 581.710938 79.179688 586.601562 C 76.25 591.492188 73.4375 596.453125 70.75 601.480469 C 68.0625 606.507812 65.5 611.601562 63.0625 616.757812 C 60.625 621.910156 58.3125 627.121094 56.132812 632.390625 C 53.949219 637.660156 51.898438 642.976562 49.976562 648.347656 C 48.054688 653.714844 46.265625 659.128906 44.613281 664.585938 C 42.957031 670.042969 41.4375 675.535156 40.050781 681.066406 C 38.664062 686.597656 37.417969 692.160156 36.304688 697.753906 C 35.191406 703.347656 34.214844 708.960938 33.378906 714.601562 C 32.542969 720.242188 31.84375 725.902344 31.285156 731.578125 C 30.726562 737.25 30.308594 742.9375 30.027344 748.632812 C 29.75 754.328125 29.609375 760.027344 29.609375 765.726562 C 29.613281 771.429688 29.761719 777.125 30.046875 782.820312 C 30.332031 788.511719 30.757812 794.195312 31.324219 799.867188 C 31.886719 805.539062 32.589844 811.195312 33.429688 816.832031 C 34.273438 822.472656 35.253906 828.085938 36.371094 833.675781 C 37.488281 839.265625 38.738281 844.824219 40.128906 850.351562 C 41.519531 855.882812 43.042969 861.371094 44.699219 866.828125 C 46.359375 872.28125 48.152344 877.691406 50.074219 883.054688 C 52 888.421875 54.054688 893.738281 56.238281 899.003906 C 58.421875 904.269531 60.734375 909.476562 63.175781 914.628906 C 65.613281 919.78125 68.179688 924.871094 70.867188 929.898438 C 73.558594 934.921875 76.367188 939.878906 79.300781 944.769531 C 82.234375 949.65625 85.28125 954.472656 88.453125 959.210938 C 91.621094 963.949219 94.902344 968.605469 98.300781 973.183594 C 101.695312 977.761719 105.203125 982.253906 108.820312 986.660156 C 112.4375 991.066406 116.160156 995.382812 119.988281 999.605469 C 123.816406 1003.828125 127.746094 1007.957031 131.777344 1011.988281 C 135.808594 1016.019531 139.933594 1019.949219 144.160156 1023.777344 C 148.382812 1027.605469 152.695312 1031.328125 157.101562 1034.945312 C 161.507812 1038.5625 166 1042.066406 170.578125 1045.464844 C 175.15625 1048.863281 179.816406 1052.144531 184.554688 1055.3125 C 189.292969 1058.480469 194.105469 1061.53125 198.996094 1064.464844 C 203.882812 1067.394531 208.839844 1070.207031 213.867188 1072.894531 C 218.894531 1075.585938 223.984375 1078.148438 229.132812 1080.589844 C 234.285156 1083.03125 239.496094 1085.34375 244.761719 1087.527344 C 250.027344 1089.710938 255.339844 1091.765625 260.707031 1093.6875 C 266.074219 1095.613281 271.484375 1097.40625 276.9375 1099.0625 C 282.390625 1100.722656 287.882812 1102.246094 293.410156 1103.636719 C 298.941406 1105.023438 304.5 1106.277344 310.089844 1107.394531 C 315.679688 1108.511719 321.292969 1109.492188 326.929688 1110.332031 C 332.570312 1111.175781 338.222656 1111.878906 343.898438 1112.441406 C 349.570312 1113.007812 355.25 1113.429688 360.945312 1113.71875 C 366.636719 1114.003906 372.335938 1114.148438 378.035156 1114.15625 Z M 378.035156 459.28125 C 383.050781 459.28125 388.0625 459.402344 393.074219 459.648438 C 398.082031 459.894531 403.082031 460.265625 408.074219 460.757812 C 413.0625 461.246094 418.039062 461.863281 423 462.597656 C 427.960938 463.332031 432.902344 464.191406 437.820312 465.167969 C 442.738281 466.148438 447.632812 467.246094 452.496094 468.464844 C 457.363281 469.683594 462.195312 471.019531 466.992188 472.476562 C 471.792969 473.933594 476.554688 475.503906 481.273438 477.195312 C 485.996094 478.882812 490.675781 480.6875 495.308594 482.605469 C 499.941406 484.527344 504.527344 486.558594 509.058594 488.703125 C 513.59375 490.847656 518.070312 493.101562 522.496094 495.464844 C 526.917969 497.828125 531.28125 500.300781 535.582031 502.878906 C 539.882812 505.457031 544.121094 508.140625 548.289062 510.925781 C 552.460938 513.710938 556.558594 516.597656 560.585938 519.585938 C 564.613281 522.574219 568.566406 525.660156 572.445312 528.839844 C 576.320312 532.023438 580.117188 535.296875 583.832031 538.664062 C 587.550781 542.035156 591.179688 545.492188 594.726562 549.035156 C 598.273438 552.582031 601.730469 556.214844 605.097656 559.929688 C 608.464844 563.648438 611.742188 567.441406 614.921875 571.320312 C 618.105469 575.195312 621.191406 579.148438 624.175781 583.175781 C 627.164062 587.207031 630.050781 591.304688 632.839844 595.476562 C 635.625 599.644531 638.304688 603.882812 640.886719 608.183594 C 643.464844 612.484375 645.933594 616.847656 648.296875 621.269531 C 650.664062 625.691406 652.917969 630.171875 655.0625 634.707031 C 657.207031 639.238281 659.238281 643.824219 661.15625 648.457031 C 663.074219 653.089844 664.878906 657.765625 666.570312 662.488281 C 668.257812 667.210938 669.832031 671.972656 671.289062 676.769531 C 672.742188 681.570312 674.082031 686.402344 675.300781 691.269531 C 676.519531 696.132812 677.617188 701.023438 678.59375 705.945312 C 679.574219 710.863281 680.429688 715.800781 681.167969 720.761719 C 681.902344 725.722656 682.515625 730.699219 683.007812 735.691406 C 683.5 740.683594 683.867188 745.683594 684.113281 750.691406 C 684.359375 755.699219 684.484375 760.714844 684.484375 765.726562 C 684.484375 770.742188 684.359375 775.757812 684.113281 780.765625 C 683.867188 785.773438 683.5 790.773438 683.007812 795.765625 C 682.515625 800.757812 681.902344 805.734375 681.167969 810.695312 C 680.429688 815.65625 679.574219 820.59375 678.59375 825.511719 C 677.617188 830.433594 676.519531 835.324219 675.300781 840.1875 C 674.082031 845.054688 672.742188 849.886719 671.289062 854.6875 C 669.832031 859.484375 668.257812 864.246094 666.570312 868.96875 C 664.878906 873.691406 663.074219 878.367188 661.15625 883 C 659.238281 887.632812 657.207031 892.21875 655.0625 896.753906 C 652.917969 901.285156 650.664062 905.765625 648.296875 910.1875 C 645.933594 914.609375 643.464844 918.972656 640.886719 923.273438 C 638.304688 927.574219 635.625 931.8125 632.835938 935.980469 C 630.050781 940.152344 627.164062 944.25 624.175781 948.28125 C 621.1875 952.308594 618.105469 956.261719 614.921875 960.136719 C 611.742188 964.015625 608.464844 967.808594 605.097656 971.527344 C 601.730469 975.242188 598.273438 978.875 594.726562 982.421875 C 591.179688 985.964844 587.550781 989.421875 583.832031 992.792969 C 580.117188 996.160156 576.320312 999.433594 572.445312 1002.617188 C 568.566406 1005.796875 564.613281 1008.882812 560.585938 1011.871094 C 556.558594 1014.859375 552.460938 1017.746094 548.289062 1020.53125 C 544.117188 1023.316406 539.882812 1026 535.582031 1028.578125 C 531.28125 1031.15625 526.917969 1033.628906 522.496094 1035.992188 C 518.070312 1038.355469 513.59375 1040.609375 509.058594 1042.753906 C 504.523438 1044.898438 499.941406 1046.929688 495.308594 1048.851562 C 490.675781 1050.769531 485.996094 1052.574219 481.273438 1054.261719 C 476.550781 1055.953125 471.792969 1057.523438 466.992188 1058.980469 C 462.195312 1060.4375 457.359375 1061.773438 452.496094 1062.992188 C 447.632812 1064.210938 442.738281 1065.308594 437.820312 1066.289062 C 432.902344 1067.265625 427.960938 1068.125 423 1068.859375 C 418.039062 1069.59375 413.0625 1070.210938 408.074219 1070.699219 C 403.082031 1071.191406 398.082031 1071.5625 393.070312 1071.808594 C 388.0625 1072.054688 383.050781 1072.175781 378.035156 1072.175781 C 373.019531 1072.175781 368.007812 1072.054688 363 1071.808594 C 357.988281 1071.5625 352.988281 1071.191406 348 1070.699219 C 343.007812 1070.210938 338.03125 1069.59375 333.070312 1068.859375 C 328.109375 1068.125 323.167969 1067.265625 318.25 1066.289062 C 313.332031 1065.308594 308.441406 1064.210938 303.574219 1062.992188 C 298.710938 1061.773438 293.878906 1060.4375 289.078125 1058.980469 C 284.277344 1057.523438 279.519531 1055.953125 274.796875 1054.261719 C 270.074219 1052.574219 265.394531 1050.769531 260.761719 1048.847656 C 256.128906 1046.929688 251.546875 1044.898438 247.011719 1042.753906 C 242.476562 1040.609375 238 1038.355469 233.578125 1035.992188 C 229.152344 1033.628906 224.792969 1031.15625 220.488281 1028.578125 C 216.1875 1026 211.953125 1023.316406 207.78125 1020.53125 C 203.613281 1017.746094 199.511719 1014.855469 195.484375 1011.871094 C 191.457031 1008.882812 187.503906 1005.796875 183.628906 1002.617188 C 179.75 999.433594 175.953125 996.160156 172.238281 992.792969 C 168.523438 989.421875 164.890625 985.964844 161.34375 982.417969 C 157.796875 978.875 154.339844 975.242188 150.972656 971.527344 C 147.605469 967.808594 144.328125 964.015625 141.148438 960.136719 C 137.964844 956.261719 134.882812 952.308594 131.894531 948.277344 C 128.90625 944.25 126.019531 940.152344 123.234375 935.980469 C 120.445312 931.8125 117.765625 927.574219 115.1875 923.273438 C 112.609375 918.972656 110.136719 914.609375 107.773438 910.1875 C 105.410156 905.765625 103.152344 901.285156 101.007812 896.75 C 98.867188 892.21875 96.832031 887.632812 94.914062 883 C 92.996094 878.367188 91.191406 873.691406 89.5 868.96875 C 87.8125 864.246094 86.238281 859.484375 84.78125 854.683594 C 83.328125 849.886719 81.988281 845.054688 80.769531 840.1875 C 79.550781 835.324219 78.453125 830.433594 77.476562 825.511719 C 76.496094 820.59375 75.640625 815.65625 74.902344 810.695312 C 74.167969 805.730469 73.554688 800.757812 73.0625 795.765625 C 72.570312 790.773438 72.203125 785.773438 71.957031 780.765625 C 71.710938 775.753906 71.585938 770.742188 71.585938 765.726562 C 71.59375 760.714844 71.722656 755.703125 71.972656 750.695312 C 72.222656 745.6875 72.597656 740.691406 73.09375 735.703125 C 73.589844 730.710938 74.207031 725.738281 74.949219 720.78125 C 75.6875 715.820312 76.550781 710.882812 77.53125 705.96875 C 78.515625 701.050781 79.617188 696.160156 80.839844 691.296875 C 82.0625 686.4375 83.402344 681.605469 84.859375 676.808594 C 86.320312 672.011719 87.894531 667.253906 89.585938 662.535156 C 91.277344 657.816406 93.085938 653.140625 95.007812 648.507812 C 96.925781 643.878906 98.960938 639.296875 101.105469 634.765625 C 103.253906 630.234375 105.507812 625.757812 107.875 621.335938 C 110.238281 616.917969 112.710938 612.558594 115.289062 608.257812 C 117.871094 603.957031 120.550781 599.722656 123.339844 595.554688 C 126.125 591.386719 129.011719 587.289062 132 583.265625 C 134.988281 579.238281 138.074219 575.289062 141.253906 571.410156 C 144.433594 567.535156 147.710938 563.742188 151.078125 560.027344 C 154.445312 556.3125 157.898438 552.683594 161.445312 549.136719 C 164.988281 545.59375 168.621094 542.136719 172.335938 538.769531 C 176.050781 535.402344 179.84375 532.128906 183.71875 528.945312 C 187.59375 525.765625 191.546875 522.679688 195.570312 519.691406 C 199.597656 516.707031 203.695312 513.816406 207.863281 511.03125 C 212.03125 508.246094 216.265625 505.5625 220.566406 502.984375 C 224.863281 500.402344 229.226562 497.933594 233.644531 495.566406 C 238.066406 493.203125 242.542969 490.945312 247.074219 488.800781 C 251.605469 486.652344 256.1875 484.621094 260.816406 482.699219 C 265.449219 480.777344 270.121094 478.972656 274.84375 477.277344 C 279.5625 475.585938 284.320312 474.011719 289.117188 472.554688 C 293.914062 471.09375 298.742188 469.753906 303.605469 468.53125 C 308.46875 467.308594 313.359375 466.207031 318.273438 465.226562 C 323.191406 464.242188 328.128906 463.382812 333.085938 462.640625 C 338.046875 461.902344 343.019531 461.285156 348.007812 460.789062 C 353 460.289062 357.996094 459.917969 363.003906 459.664062 C 368.011719 459.414062 373.023438 459.285156 378.035156 459.28125 Z M 349.175781 765.726562 C 349.175781 764.78125 349.222656 763.839844 349.3125 762.898438 C 349.40625 761.957031 349.546875 761.023438 349.730469 760.097656 C 349.914062 759.171875 350.144531 758.253906 350.417969 757.351562 C 350.691406 756.445312 351.011719 755.558594 351.371094 754.683594 C 351.734375 753.808594 352.136719 752.957031 352.582031 752.125 C 353.027344 751.289062 353.515625 750.480469 354.039062 749.695312 C 354.5625 748.90625 355.125 748.148438 355.726562 747.417969 C 356.324219 746.6875 356.960938 745.988281 357.628906 745.320312 C 358.296875 744.652344 358.996094 744.019531 359.726562 743.417969 C 360.457031 742.820312 361.214844 742.257812 362 741.730469 C 362.789062 741.207031 363.597656 740.71875 364.429688 740.273438 C 365.265625 739.828125 366.117188 739.425781 366.992188 739.0625 C 367.863281 738.703125 368.753906 738.382812 369.65625 738.109375 C 370.5625 737.835938 371.476562 737.605469 372.40625 737.421875 C 373.332031 737.238281 374.265625 737.097656 375.207031 737.007812 C 376.148438 736.914062 377.089844 736.867188 378.035156 736.867188 C 378.980469 736.867188 379.925781 736.914062 380.863281 737.007812 C 381.804688 737.097656 382.738281 737.238281 383.667969 737.421875 C 384.59375 737.605469 385.507812 737.835938 386.414062 738.109375 C 387.316406 738.382812 388.207031 738.703125 389.082031 739.0625 C 389.953125 739.425781 390.808594 739.828125 391.640625 740.273438 C 392.472656 740.71875 393.285156 741.207031 394.070312 741.730469 C 394.855469 742.257812 395.613281 742.820312 396.34375 743.417969 C 397.074219 744.019531 397.773438 744.652344 398.445312 745.320312 C 399.113281 745.988281 399.746094 746.6875 400.34375 747.417969 C 400.945312 748.148438 401.507812 748.90625 402.03125 749.695312 C 402.558594 750.480469 403.042969 751.289062 403.488281 752.125 C 403.933594 752.957031 404.339844 753.808594 404.699219 754.683594 C 405.0625 755.558594 405.378906 756.445312 405.652344 757.351562 C 405.929688 758.253906 406.15625 759.171875 406.34375 760.097656 C 406.527344 761.023438 406.664062 761.957031 406.757812 762.898438 C 406.851562 763.839844 406.898438 764.78125 406.898438 765.726562 C 406.898438 766.671875 406.851562 767.617188 406.757812 768.558594 C 406.664062 769.496094 406.527344 770.429688 406.34375 771.359375 C 406.15625 772.285156 405.929688 773.203125 405.652344 774.105469 C 405.378906 775.011719 405.0625 775.898438 404.699219 776.773438 C 404.339844 777.644531 403.933594 778.5 403.488281 779.332031 C 403.042969 780.167969 402.558594 780.976562 402.03125 781.761719 C 401.507812 782.546875 400.945312 783.304688 400.34375 784.035156 C 399.746094 784.769531 399.113281 785.46875 398.445312 786.136719 C 397.773438 786.804688 397.074219 787.4375 396.34375 788.039062 C 395.613281 788.636719 394.855469 789.199219 394.070312 789.726562 C 393.285156 790.25 392.472656 790.734375 391.640625 791.179688 C 390.808594 791.625 389.953125 792.03125 389.082031 792.390625 C 388.207031 792.753906 387.320312 793.070312 386.414062 793.347656 C 385.507812 793.621094 384.59375 793.851562 383.667969 794.035156 C 382.738281 794.21875 381.804688 794.355469 380.863281 794.449219 C 379.925781 794.542969 378.980469 794.589844 378.035156 794.589844 C 377.089844 794.585938 376.148438 794.539062 375.207031 794.445312 C 374.269531 794.351562 373.335938 794.214844 372.40625 794.027344 C 371.480469 793.84375 370.566406 793.613281 369.664062 793.335938 C 368.757812 793.0625 367.871094 792.742188 366.996094 792.382812 C 366.125 792.019531 365.273438 791.617188 364.4375 791.171875 C 363.605469 790.722656 362.796875 790.238281 362.011719 789.714844 C 361.226562 789.1875 360.46875 788.625 359.738281 788.027344 C 359.007812 787.425781 358.308594 786.792969 357.640625 786.125 C 356.972656 785.457031 356.335938 784.757812 355.738281 784.027344 C 355.136719 783.296875 354.574219 782.539062 354.050781 781.753906 C 353.523438 780.96875 353.039062 780.160156 352.59375 779.324219 C 352.148438 778.492188 351.746094 777.640625 351.382812 776.765625 C 351.019531 775.894531 350.703125 775.003906 350.425781 774.101562 C 350.152344 773.199219 349.921875 772.28125 349.734375 771.355469 C 349.550781 770.429688 349.410156 769.496094 349.316406 768.554688 C 349.222656 767.617188 349.175781 766.671875 349.175781 765.726562 Z M 349.175781 765.726562 " fill-opacity="1" fill-rule="nonzero"/></g><path stroke-linecap="round" transform="matrix(-0.76437, -0.000000000000000189, 0.000000000000000189, -0.764095, 723.210769, 1199.989336)" fill="none" stroke-linejoin="miter" d="M 32.502039 32.500001 L 879.185904 32.500001 " stroke="#000000" stroke-width="65" stroke-opacity="1" stroke-miterlimit="4"/><path stroke-linecap="round" transform="matrix(0.530305, 0.530305, -0.53033, 0.53033, 375.671029, 5.265214)" fill="none" stroke-linejoin="miter" d="M 33.00104 32.997909 L 640.03631 32.997909 " stroke="#000000" stroke-width="66" stroke-opacity="1" stroke-miterlimit="4"/><path stroke-linecap="round" transform="matrix(0.529968, -0.529968, 0.53033, 0.53033, 17.396838, 361.576589)" fill="none" stroke-linejoin="miter" d="M 32.998784 33.001276 L 631.453531 32.997593 " stroke="#000000" stroke-width="66" stroke-opacity="1" stroke-miterlimit="4"/></svg>