<svg xmlns="http://www.w3.org/2000/svg" xmlns:xlink="http://www.w3.org/1999/xlink" width="1000" zoomAndPan="magnify" viewBox="0 0 750 1199.999942" height="1600" preserveAspectRatio="xMidYMid meet" version="1.0"><defs><clipPath id="0970150175"><path d="M 26.53125 4.960938 L 723.382812 4.960938 L 723.382812 701.816406 L 26.53125 701.816406 Z M 26.53125 4.960938 " clip-rule="nonzero"/></clipPath></defs><g clip-path="url(#0970150175)"><path fill="#000000" d="M 374.957031 701.816406 C 380.660156 701.816406 386.355469 701.675781 392.050781 701.394531 C 397.746094 701.117188 403.433594 700.695312 409.109375 700.136719 C 414.78125 699.578125 420.441406 698.878906 426.082031 698.042969 C 431.722656 697.207031 437.339844 696.234375 442.929688 695.121094 C 448.523438 694.007812 454.085938 692.757812 459.617188 691.375 C 465.148438 689.988281 470.640625 688.46875 476.097656 686.8125 C 481.554688 685.15625 486.96875 683.367188 492.335938 681.449219 C 497.707031 679.527344 503.023438 677.476562 508.292969 675.292969 C 513.5625 673.109375 518.773438 670.800781 523.925781 668.363281 C 529.082031 665.925781 534.175781 663.359375 539.203125 660.671875 C 544.230469 657.984375 549.191406 655.175781 554.082031 652.242188 C 558.972656 649.3125 563.789062 646.261719 568.53125 643.09375 C 573.273438 639.925781 577.933594 636.644531 582.511719 633.246094 C 587.09375 629.851562 591.585938 626.34375 595.996094 622.726562 C 600.402344 619.109375 604.71875 615.386719 608.945312 611.554688 C 613.167969 607.726562 617.296875 603.796875 621.332031 599.761719 C 625.363281 595.730469 629.292969 591.601562 633.121094 587.378906 C 636.953125 583.152344 640.675781 578.835938 644.292969 574.429688 C 647.910156 570.019531 651.417969 565.527344 654.816406 560.945312 C 658.210938 556.367188 661.492188 551.707031 664.660156 546.964844 C 667.828125 542.222656 670.878906 537.40625 673.8125 532.515625 C 676.742188 527.625 679.550781 522.664062 682.242188 517.636719 C 684.929688 512.605469 687.492188 507.515625 689.929688 502.359375 C 692.367188 497.207031 694.675781 491.992188 696.859375 486.726562 C 699.042969 481.457031 701.09375 476.140625 703.015625 470.769531 C 704.9375 465.402344 706.722656 459.988281 708.378906 454.53125 C 710.035156 449.074219 711.554688 443.582031 712.941406 438.050781 C 714.324219 432.519531 715.574219 426.957031 716.6875 421.363281 C 717.800781 415.769531 718.773438 410.152344 719.609375 404.511719 C 720.449219 398.871094 721.144531 393.214844 721.703125 387.539062 C 722.261719 381.867188 722.683594 376.179688 722.960938 370.484375 C 723.242188 364.789062 723.382812 359.089844 723.382812 353.390625 C 723.382812 347.6875 723.242188 341.988281 722.960938 336.292969 C 722.683594 330.597656 722.261719 324.910156 721.703125 319.238281 C 721.144531 313.5625 720.449219 307.90625 719.609375 302.265625 C 718.773438 296.625 717.800781 291.007812 716.6875 285.414062 C 715.574219 279.820312 714.324219 274.257812 712.941406 268.726562 C 711.554688 263.195312 710.035156 257.703125 708.378906 252.246094 C 706.722656 246.789062 704.9375 241.375 703.015625 236.007812 C 701.09375 230.636719 699.042969 225.320312 696.859375 220.050781 C 694.675781 214.785156 692.367188 209.570312 689.929688 204.417969 C 687.492188 199.261719 684.929688 194.171875 682.242188 189.140625 C 679.550781 184.113281 676.742188 179.152344 673.8125 174.261719 C 670.878906 169.371094 667.828125 164.554688 664.660156 159.8125 C 661.492188 155.074219 658.210938 150.410156 654.816406 145.832031 C 651.417969 141.25 647.910156 136.757812 644.292969 132.347656 C 640.675781 127.941406 636.953125 123.625 633.121094 119.398438 C 629.292969 115.175781 625.363281 111.046875 621.332031 107.015625 C 617.296875 102.980469 613.167969 99.050781 608.945312 95.222656 C 604.71875 91.394531 600.402344 87.667969 595.996094 84.050781 C 591.585938 80.433594 587.09375 76.925781 582.511719 73.53125 C 577.933594 70.132812 573.273438 66.851562 568.53125 63.683594 C 563.789062 60.515625 558.972656 57.464844 554.082031 54.535156 C 549.191406 51.601562 544.230469 48.792969 539.203125 46.105469 C 534.175781 43.417969 529.082031 40.851562 523.925781 38.414062 C 518.773438 35.976562 513.5625 33.667969 508.292969 31.484375 C 503.023438 29.304688 497.707031 27.25 492.335938 25.332031 C 486.96875 23.410156 481.554688 21.621094 476.097656 19.964844 C 470.640625 18.308594 465.148438 16.789062 459.617188 15.40625 C 454.085938 14.019531 448.523438 12.769531 442.929688 11.65625 C 437.335938 10.546875 431.722656 9.570312 426.082031 8.734375 C 420.441406 7.898438 414.78125 7.199219 409.109375 6.640625 C 403.433594 6.082031 397.746094 5.660156 392.050781 5.382812 C 386.355469 5.101562 380.660156 4.960938 374.957031 4.960938 C 369.253906 4.960938 363.554688 5.101562 357.859375 5.382812 C 352.164062 5.660156 346.480469 6.082031 340.804688 6.640625 C 335.128906 7.199219 329.472656 7.898438 323.832031 8.734375 C 318.191406 9.570312 312.574219 10.546875 306.980469 11.65625 C 301.390625 12.769531 295.828125 14.019531 290.296875 15.40625 C 284.765625 16.789062 279.269531 18.308594 273.8125 19.964844 C 268.355469 21.621094 262.945312 23.410156 257.574219 25.332031 C 252.207031 27.25 246.886719 29.304688 241.617188 31.484375 C 236.351562 33.667969 231.140625 35.976562 225.984375 38.414062 C 220.828125 40.851562 215.738281 43.417969 210.710938 46.105469 C 205.679688 48.792969 200.71875 51.601562 195.828125 54.535156 C 190.9375 57.464844 186.121094 60.515625 181.378906 63.683594 C 176.640625 66.851562 171.980469 70.132812 167.398438 73.53125 C 162.820312 76.925781 158.324219 80.433594 153.917969 84.050781 C 149.507812 87.667969 145.191406 91.394531 140.96875 95.222656 C 136.742188 99.050781 132.613281 102.980469 128.582031 107.015625 C 124.550781 111.046875 120.617188 115.175781 116.789062 119.398438 C 112.960938 123.625 109.238281 127.941406 105.617188 132.347656 C 102 136.757812 98.496094 141.25 95.097656 145.832031 C 91.699219 150.410156 88.417969 155.074219 85.25 159.8125 C 82.082031 164.554688 79.03125 169.371094 76.101562 174.261719 C 73.167969 179.152344 70.359375 184.113281 67.671875 189.140625 C 64.984375 194.171875 62.421875 199.261719 59.984375 204.417969 C 57.542969 209.570312 55.234375 214.785156 53.050781 220.050781 C 50.871094 225.320312 48.820312 230.640625 46.898438 236.007812 C 44.976562 241.375 43.1875 246.789062 41.53125 252.246094 C 39.878906 257.703125 38.355469 263.195312 36.972656 268.726562 C 35.585938 274.257812 34.335938 279.820312 33.226562 285.414062 C 32.113281 291.007812 31.136719 296.625 30.300781 302.265625 C 29.464844 307.90625 28.765625 313.5625 28.207031 319.238281 C 27.648438 324.910156 27.230469 330.597656 26.949219 336.292969 C 26.667969 341.988281 26.53125 347.6875 26.53125 353.390625 C 26.535156 359.089844 26.683594 364.785156 26.96875 370.480469 C 27.253906 376.171875 27.679688 381.855469 28.242188 387.527344 C 28.808594 393.199219 29.511719 398.855469 30.351562 404.492188 C 31.195312 410.132812 32.171875 415.746094 33.289062 421.335938 C 34.40625 426.925781 35.660156 432.484375 37.050781 438.011719 C 38.441406 443.542969 39.964844 449.035156 41.621094 454.488281 C 43.28125 459.941406 45.070312 465.351562 46.996094 470.71875 C 48.917969 476.082031 50.972656 481.398438 53.160156 486.664062 C 55.34375 491.929688 57.65625 497.136719 60.09375 502.289062 C 62.535156 507.441406 65.097656 512.53125 67.789062 517.558594 C 70.476562 522.582031 73.289062 527.539062 76.222656 532.429688 C 79.152344 537.316406 82.203125 542.132812 85.371094 546.871094 C 88.539062 551.609375 91.824219 556.265625 95.21875 560.84375 C 98.617188 565.421875 102.125 569.914062 105.742188 574.320312 C 109.359375 578.726562 113.082031 583.042969 116.910156 587.265625 C 120.738281 591.488281 124.667969 595.617188 128.699219 599.648438 C 132.730469 603.679688 136.855469 607.609375 141.078125 611.4375 C 145.304688 615.265625 149.617188 618.988281 154.023438 622.605469 C 158.429688 626.222656 162.921875 629.726562 167.5 633.125 C 172.078125 636.523438 176.734375 639.804688 181.476562 642.972656 C 186.214844 646.140625 191.027344 649.191406 195.914062 652.125 C 200.804688 655.054688 205.761719 657.867188 210.789062 660.554688 C 215.8125 663.246094 220.902344 665.808594 226.054688 668.25 C 231.207031 670.691406 236.414062 673 241.679688 675.1875 C 246.945312 677.371094 252.261719 679.425781 257.628906 681.347656 C 262.992188 683.273438 268.402344 685.0625 273.859375 686.722656 C 279.3125 688.382812 284.800781 689.90625 290.332031 691.292969 C 295.859375 692.683594 301.417969 693.9375 307.007812 695.054688 C 312.597656 696.171875 318.214844 697.152344 323.851562 697.992188 C 329.488281 698.832031 335.144531 699.535156 340.816406 700.101562 C 346.488281 700.664062 352.171875 701.089844 357.867188 701.375 C 363.558594 701.664062 369.253906 701.808594 374.957031 701.816406 Z M 374.957031 46.941406 C 379.972656 46.941406 384.984375 47.066406 389.992188 47.3125 C 395 47.558594 400 47.925781 404.992188 48.417969 C 409.984375 48.910156 414.960938 49.523438 419.921875 50.257812 C 424.882812 50.996094 429.820312 51.851562 434.742188 52.832031 C 439.660156 53.808594 444.550781 54.90625 449.417969 56.125 C 454.28125 57.34375 459.113281 58.683594 463.914062 60.136719 C 468.710938 61.59375 473.472656 63.167969 478.195312 64.855469 C 482.917969 66.546875 487.59375 68.351562 492.226562 70.269531 C 496.863281 72.1875 501.445312 74.21875 505.980469 76.363281 C 510.511719 78.507812 514.992188 80.761719 519.414062 83.125 C 523.835938 85.492188 528.199219 87.960938 532.5 90.539062 C 536.804688 93.117188 541.039062 95.800781 545.207031 98.585938 C 549.378906 101.375 553.476562 104.261719 557.507812 107.25 C 561.535156 110.234375 565.488281 113.320312 569.363281 116.503906 C 573.242188 119.683594 577.035156 122.957031 580.753906 126.328125 C 584.46875 129.695312 588.101562 133.152344 591.648438 136.699219 C 595.191406 140.246094 598.648438 143.875 602.019531 147.59375 C 605.386719 151.308594 608.660156 155.105469 611.84375 158.980469 C 615.023438 162.859375 618.109375 166.8125 621.097656 170.839844 C 624.082031 174.867188 626.972656 178.964844 629.757812 183.136719 C 632.542969 187.304688 635.226562 191.542969 637.804688 195.84375 C 640.382812 200.144531 642.855469 204.507812 645.21875 208.929688 C 647.582031 213.355469 649.835938 217.832031 651.980469 222.367188 C 654.125 226.898438 656.15625 231.484375 658.074219 236.117188 C 659.996094 240.75 661.800781 245.429688 663.488281 250.148438 C 665.179688 254.871094 666.75 259.632812 668.207031 264.433594 C 669.664062 269.230469 671 274.0625 672.21875 278.929688 C 673.4375 283.792969 674.535156 288.6875 675.515625 293.605469 C 676.492188 298.523438 677.351562 303.464844 678.085938 308.425781 C 678.820312 313.386719 679.433594 318.359375 679.925781 323.351562 C 680.417969 328.34375 680.789062 333.34375 681.035156 338.351562 C 681.28125 343.363281 681.402344 348.375 681.402344 353.390625 C 681.402344 358.40625 681.28125 363.417969 681.035156 368.425781 C 680.789062 373.433594 680.417969 378.433594 679.925781 383.425781 C 679.433594 388.417969 678.820312 393.394531 678.085938 398.355469 C 677.351562 403.316406 676.492188 408.253906 675.515625 413.175781 C 674.535156 418.09375 673.4375 422.984375 672.21875 427.851562 C 671 432.714844 669.664062 437.546875 668.207031 442.347656 C 666.75 447.144531 665.179688 451.90625 663.488281 456.628906 C 661.800781 461.351562 659.996094 466.027344 658.074219 470.660156 C 656.15625 475.296875 654.125 479.878906 651.980469 484.414062 C 649.835938 488.945312 647.582031 493.425781 645.21875 497.847656 C 642.855469 502.269531 640.382812 506.632812 637.804688 510.933594 C 635.226562 515.234375 632.542969 519.472656 629.757812 523.640625 C 626.96875 527.8125 624.082031 531.910156 621.097656 535.941406 C 618.109375 539.96875 615.023438 543.921875 611.84375 547.796875 C 608.660156 551.675781 605.386719 555.46875 602.019531 559.1875 C 598.648438 562.902344 595.191406 566.535156 591.644531 570.082031 C 588.101562 573.625 584.46875 577.082031 580.753906 580.453125 C 577.035156 583.820312 573.242188 587.09375 569.363281 590.277344 C 565.488281 593.457031 561.535156 596.542969 557.507812 599.53125 C 553.476562 602.515625 549.378906 605.40625 545.207031 608.191406 C 541.039062 610.976562 536.800781 613.660156 532.5 616.238281 C 528.199219 618.816406 523.835938 621.289062 519.414062 623.652344 C 514.992188 626.015625 510.511719 628.269531 505.980469 630.414062 C 501.445312 632.558594 496.859375 634.589844 492.226562 636.507812 C 487.59375 638.429688 482.917969 640.234375 478.195312 641.921875 C 473.472656 643.613281 468.710938 645.183594 463.914062 646.640625 C 459.113281 648.097656 454.28125 649.433594 449.417969 650.652344 C 444.550781 651.871094 439.660156 652.96875 434.742188 653.949219 C 429.820312 654.925781 424.882812 655.785156 419.921875 656.519531 C 414.960938 657.253906 409.984375 657.871094 404.992188 658.359375 C 400 658.851562 395 659.222656 389.992188 659.46875 C 384.984375 659.714844 379.972656 659.835938 374.957031 659.835938 C 369.941406 659.835938 364.929688 659.714844 359.917969 659.46875 C 354.910156 659.222656 349.910156 658.851562 344.917969 658.359375 C 339.925781 657.871094 334.953125 657.253906 329.992188 656.519531 C 325.03125 655.785156 320.089844 654.925781 315.171875 653.949219 C 310.25 652.96875 305.359375 651.871094 300.496094 650.652344 C 295.628906 649.433594 290.796875 648.097656 286 646.640625 C 281.199219 645.183594 276.4375 643.613281 271.714844 641.921875 C 266.996094 640.234375 262.316406 638.429688 257.683594 636.507812 C 253.050781 634.589844 248.464844 632.558594 243.933594 630.414062 C 239.398438 628.269531 234.921875 626.015625 230.496094 623.652344 C 226.074219 621.289062 221.710938 618.816406 217.410156 616.238281 C 213.109375 613.660156 208.871094 610.976562 204.703125 608.191406 C 200.53125 605.40625 196.433594 602.515625 192.40625 599.53125 C 188.378906 596.542969 184.425781 593.457031 180.546875 590.277344 C 176.671875 587.09375 172.875 583.820312 169.160156 580.453125 C 165.441406 577.082031 161.8125 573.625 158.265625 570.078125 C 154.71875 566.535156 151.261719 562.902344 147.894531 559.1875 C 144.523438 555.46875 141.25 551.675781 138.070312 547.796875 C 134.886719 543.921875 131.800781 539.96875 128.816406 535.9375 C 125.828125 531.910156 122.941406 527.8125 120.152344 523.640625 C 117.367188 519.472656 114.683594 515.234375 112.105469 510.933594 C 109.527344 506.632812 107.058594 502.269531 104.691406 497.847656 C 102.328125 493.425781 100.074219 488.945312 97.929688 484.410156 C 95.785156 479.878906 93.753906 475.292969 91.835938 470.660156 C 89.917969 466.027344 88.113281 461.351562 86.421875 456.628906 C 84.734375 451.90625 83.160156 447.144531 81.703125 442.347656 C 80.25 437.546875 78.910156 432.714844 77.691406 427.847656 C 76.472656 422.984375 75.375 418.09375 74.398438 413.171875 C 73.417969 408.253906 72.5625 403.316406 71.824219 398.355469 C 71.089844 393.394531 70.476562 388.417969 69.984375 383.425781 C 69.492188 378.433594 69.125 373.433594 68.878906 368.425781 C 68.632812 363.417969 68.507812 358.402344 68.507812 353.390625 C 68.515625 348.375 68.640625 343.363281 68.894531 338.355469 C 69.144531 333.351562 69.519531 328.351562 70.015625 323.363281 C 70.511719 318.375 71.128906 313.398438 71.871094 308.441406 C 72.609375 303.480469 73.472656 298.542969 74.453125 293.628906 C 75.4375 288.710938 76.539062 283.820312 77.761719 278.960938 C 78.980469 274.097656 80.324219 269.265625 81.78125 264.46875 C 83.238281 259.671875 84.816406 254.914062 86.507812 250.195312 C 88.199219 245.476562 90.007812 240.800781 91.925781 236.171875 C 93.847656 231.539062 95.882812 226.957031 98.027344 222.425781 C 100.175781 217.894531 102.429688 213.417969 104.796875 209 C 107.160156 204.578125 109.632812 200.21875 112.210938 195.917969 C 114.789062 191.617188 117.472656 187.386719 120.261719 183.21875 C 123.046875 179.050781 125.933594 174.953125 128.921875 170.925781 C 131.910156 166.898438 134.992188 162.949219 138.175781 159.074219 C 141.355469 155.199219 144.628906 151.402344 147.996094 147.6875 C 151.363281 143.972656 154.820312 140.34375 158.367188 136.796875 C 161.910156 133.253906 165.539062 129.796875 169.253906 126.429688 C 172.96875 123.0625 176.765625 119.789062 180.640625 116.605469 C 184.515625 113.425781 188.464844 110.34375 192.492188 107.355469 C 196.519531 104.367188 200.617188 101.480469 204.785156 98.691406 C 208.953125 95.90625 213.1875 93.222656 217.484375 90.644531 C 221.785156 88.066406 226.144531 85.59375 230.566406 83.226562 C 234.988281 80.863281 239.460938 78.605469 243.992188 76.460938 C 248.523438 74.316406 253.105469 72.28125 257.738281 70.359375 C 262.367188 68.441406 267.042969 66.632812 271.761719 64.941406 C 276.484375 63.25 281.242188 61.671875 286.039062 60.214844 C 290.835938 58.757812 295.664062 57.414062 300.527344 56.195312 C 305.390625 54.972656 310.277344 53.871094 315.195312 52.886719 C 320.113281 51.90625 325.050781 51.042969 330.007812 50.304688 C 334.964844 49.5625 339.941406 48.945312 344.929688 48.449219 C 349.917969 47.953125 354.917969 47.578125 359.925781 47.328125 C 364.933594 47.074219 369.941406 46.949219 374.957031 46.941406 Z M 346.09375 353.390625 C 346.09375 352.445312 346.140625 351.5 346.234375 350.558594 C 346.328125 349.621094 346.464844 348.683594 346.648438 347.757812 C 346.835938 346.832031 347.0625 345.914062 347.339844 345.011719 C 347.613281 344.105469 347.929688 343.21875 348.292969 342.34375 C 348.652344 341.472656 349.058594 340.617188 349.503906 339.785156 C 349.949219 338.949219 350.433594 338.140625 350.960938 337.355469 C 351.484375 336.570312 352.046875 335.808594 352.644531 335.078125 C 353.246094 334.347656 353.878906 333.648438 354.546875 332.980469 C 355.214844 332.3125 355.917969 331.679688 356.648438 331.078125 C 357.378906 330.480469 358.136719 329.917969 358.921875 329.390625 C 359.707031 328.867188 360.515625 328.382812 361.351562 327.9375 C 362.183594 327.492188 363.039062 327.085938 363.910156 326.726562 C 364.785156 326.363281 365.671875 326.046875 366.578125 325.769531 C 367.484375 325.496094 368.398438 325.265625 369.324219 325.082031 C 370.253906 324.898438 371.1875 324.757812 372.128906 324.667969 C 373.066406 324.574219 374.011719 324.527344 374.957031 324.527344 C 375.902344 324.527344 376.84375 324.574219 377.785156 324.667969 C 378.726562 324.757812 379.660156 324.898438 380.585938 325.082031 C 381.511719 325.265625 382.429688 325.496094 383.332031 325.769531 C 384.238281 326.046875 385.128906 326.363281 386 326.726562 C 386.875 327.085938 387.726562 327.492188 388.5625 327.9375 C 389.394531 328.382812 390.203125 328.867188 390.988281 329.390625 C 391.777344 329.917969 392.535156 330.480469 393.265625 331.078125 C 393.996094 331.679688 394.695312 332.3125 395.363281 332.980469 C 396.03125 333.648438 396.664062 334.347656 397.265625 335.078125 C 397.867188 335.808594 398.425781 336.570312 398.953125 337.355469 C 399.476562 338.140625 399.964844 338.949219 400.410156 339.785156 C 400.855469 340.617188 401.257812 341.472656 401.621094 342.34375 C 401.980469 343.21875 402.300781 344.105469 402.574219 345.011719 C 402.847656 345.914062 403.078125 346.832031 403.261719 347.757812 C 403.445312 348.683594 403.585938 349.621094 403.675781 350.558594 C 403.769531 351.5 403.816406 352.445312 403.816406 353.390625 C 403.816406 354.332031 403.769531 355.277344 403.675781 356.21875 C 403.585938 357.160156 403.445312 358.09375 403.261719 359.019531 C 403.078125 359.945312 402.847656 360.863281 402.574219 361.765625 C 402.300781 362.671875 401.980469 363.558594 401.621094 364.433594 C 401.257812 365.304688 400.855469 366.160156 400.410156 366.992188 C 399.964844 367.828125 399.476562 368.636719 398.953125 369.421875 C 398.425781 370.207031 397.867188 370.96875 397.265625 371.699219 C 396.664062 372.429688 396.03125 373.128906 395.363281 373.796875 C 394.695312 374.464844 393.996094 375.097656 393.265625 375.699219 C 392.535156 376.296875 391.777344 376.859375 390.988281 377.386719 C 390.203125 377.910156 389.394531 378.394531 388.5625 378.839844 C 387.726562 379.289062 386.875 379.691406 386 380.050781 C 385.128906 380.414062 384.238281 380.730469 383.332031 381.007812 C 382.429688 381.28125 381.511719 381.511719 380.585938 381.695312 C 379.660156 381.878906 378.726562 382.019531 377.785156 382.109375 C 376.84375 382.203125 375.902344 382.25 374.957031 382.25 C 374.011719 382.25 373.070312 382.199219 372.128906 382.105469 C 371.1875 382.011719 370.253906 381.875 369.328125 381.6875 C 368.402344 381.503906 367.488281 381.273438 366.582031 381 C 365.679688 380.722656 364.789062 380.40625 363.917969 380.042969 C 363.042969 379.679688 362.191406 379.277344 361.359375 378.832031 C 360.527344 378.386719 359.714844 377.898438 358.929688 377.375 C 358.144531 376.847656 357.386719 376.285156 356.65625 375.6875 C 355.925781 375.085938 355.226562 374.453125 354.558594 373.785156 C 353.890625 373.117188 353.257812 372.417969 352.65625 371.6875 C 352.058594 370.957031 351.496094 370.199219 350.96875 369.414062 C 350.445312 368.628906 349.960938 367.820312 349.515625 366.984375 C 349.066406 366.152344 348.664062 365.300781 348.300781 364.425781 C 347.941406 363.554688 347.621094 362.667969 347.347656 361.761719 C 347.070312 360.859375 346.839844 359.941406 346.65625 359.015625 C 346.472656 358.089844 346.332031 357.15625 346.238281 356.214844 C 346.144531 355.277344 346.097656 354.332031 346.09375 353.390625 Z M 346.09375 353.390625 " fill-opacity="1" fill-rule="nonzero"/></g><path stroke-linecap="round" transform="matrix(-0.764368, -0.000000000000000189, 0.000000000000000189, -0.764093, 720.129625, 787.648493)" fill="none" stroke-linejoin="miter" d="M 32.498192 32.498795 L 879.184715 32.498795 " stroke="#000000" stroke-width="65" stroke-opacity="1" stroke-miterlimit="4"/><path stroke-linecap="round" transform="matrix(-0.540614, -0.540614, 0.540295, -0.540295, 374.262054, 1199.990728)" fill="none" stroke-linejoin="miter" d="M 32.503208 32.500113 L 628.12177 32.500113 " stroke="#000000" stroke-width="65" stroke-opacity="1" stroke-miterlimit="4"/><path stroke-linecap="round" transform="matrix(-0.54014, 0.54014, -0.540295, -0.540295, 732.652872, 843.684504)" fill="none" stroke-linejoin="miter" d="M 32.49992 32.499491 L 619.696123 32.499491 " stroke="#000000" stroke-width="65" stroke-opacity="1" stroke-miterlimit="4"/></svg>