<svg xmlns="http://www.w3.org/2000/svg" xmlns:xlink="http://www.w3.org/1999/xlink" width="1000" zoomAndPan="magnify" viewBox="0 0 750 1199.999942" height="1600" preserveAspectRatio="xMidYMid meet" version="1.0"><defs><clipPath id="d7a9d9e55d"><path d="M 23.527344 91.046875 L 720.378906 91.046875 L 720.378906 787.898438 L 23.527344 787.898438 Z M 23.527344 91.046875 " clip-rule="nonzero"/></clipPath></defs><path stroke-linecap="round" transform="matrix(0.764368, 0.000000000000000187, -0.000000000000000187, 0.764093, 26.780478, 5.203339)" fill="none" stroke-linejoin="miter" d="M 32.498262 32.498442 L 879.184785 32.498442 " stroke="#000000" stroke-width="65" stroke-opacity="1" stroke-miterlimit="4"/><g clip-path="url(#d7a9d9e55d)"><path fill="#000000" d="M 371.953125 91.046875 C 366.25 91.046875 360.554688 91.1875 354.859375 91.46875 C 349.164062 91.746094 343.476562 92.164062 337.800781 92.726562 C 332.128906 93.285156 326.46875 93.980469 320.828125 94.816406 C 315.1875 95.65625 309.570312 96.628906 303.980469 97.742188 C 298.386719 98.855469 292.824219 100.101562 287.292969 101.488281 C 281.761719 102.875 276.269531 104.394531 270.8125 106.050781 C 265.355469 107.707031 259.941406 109.492188 254.574219 111.414062 C 249.203125 113.335938 243.886719 115.386719 238.617188 117.570312 C 233.347656 119.75 228.136719 122.0625 222.984375 124.5 C 217.828125 126.9375 212.734375 129.5 207.707031 132.1875 C 202.679688 134.875 197.71875 137.6875 192.828125 140.617188 C 187.9375 143.550781 183.121094 146.597656 178.378906 149.765625 C 173.636719 152.9375 168.976562 156.21875 164.398438 159.613281 C 159.816406 163.011719 155.324219 166.519531 150.914062 170.136719 C 146.507812 173.753906 142.191406 177.476562 137.964844 181.304688 C 133.742188 185.136719 129.613281 189.066406 125.578125 193.097656 C 121.546875 197.132812 117.617188 201.257812 113.789062 205.484375 C 109.957031 209.710938 106.234375 214.027344 102.617188 218.433594 C 99 222.84375 95.492188 227.335938 92.09375 231.917969 C 88.699219 236.496094 85.417969 241.15625 82.25 245.898438 C 79.082031 250.640625 76.03125 255.457031 73.097656 260.347656 C 70.167969 265.238281 67.359375 270.199219 64.667969 275.226562 C 61.980469 280.253906 59.417969 285.347656 56.980469 290.503906 C 54.542969 295.65625 52.234375 300.867188 50.050781 306.136719 C 47.867188 311.40625 45.816406 316.722656 43.894531 322.09375 C 41.972656 327.460938 40.1875 332.875 38.53125 338.332031 C 36.875 343.789062 35.355469 349.28125 33.96875 354.8125 C 32.585938 360.34375 31.335938 365.90625 30.222656 371.5 C 29.109375 377.089844 28.136719 382.707031 27.300781 388.347656 C 26.460938 393.988281 25.765625 399.648438 25.207031 405.320312 C 24.648438 410.996094 24.226562 416.679688 23.949219 422.375 C 23.667969 428.074219 23.527344 433.769531 23.527344 439.472656 C 23.527344 445.175781 23.667969 450.875 23.949219 456.570312 C 24.226562 462.265625 24.648438 467.949219 25.207031 473.625 C 25.765625 479.300781 26.460938 484.957031 27.300781 490.597656 C 28.136719 496.238281 29.109375 501.855469 30.222656 507.449219 C 31.335938 513.039062 32.585938 518.601562 33.96875 524.132812 C 35.355469 529.664062 36.875 535.160156 38.53125 540.617188 C 40.1875 546.074219 41.972656 551.484375 43.894531 556.855469 C 45.816406 562.222656 47.867188 567.542969 50.050781 572.808594 C 52.234375 578.078125 54.542969 583.289062 56.980469 588.445312 C 59.417969 593.597656 61.980469 598.691406 64.667969 603.71875 C 67.359375 608.75 70.167969 613.710938 73.097656 618.601562 C 76.03125 623.492188 79.082031 628.308594 82.25 633.046875 C 85.417969 637.789062 88.699219 642.449219 92.09375 647.03125 C 95.492188 651.609375 99 656.105469 102.617188 660.511719 C 106.234375 664.921875 109.957031 669.238281 113.789062 673.460938 C 117.617188 677.6875 121.546875 681.816406 125.578125 685.847656 C 129.613281 689.878906 133.742188 693.8125 137.964844 697.640625 C 142.191406 701.46875 146.507812 705.191406 150.914062 708.808594 C 155.324219 712.429688 159.816406 715.933594 164.398438 719.332031 C 168.976562 722.730469 173.636719 726.011719 178.378906 729.179688 C 183.121094 732.347656 187.9375 735.398438 192.828125 738.328125 C 197.71875 741.261719 202.679688 744.070312 207.707031 746.757812 C 212.734375 749.445312 217.828125 752.007812 222.984375 754.445312 C 228.136719 756.886719 233.347656 759.195312 238.617188 761.378906 C 243.886719 763.558594 249.203125 765.609375 254.574219 767.53125 C 259.941406 769.453125 265.355469 771.242188 270.8125 772.894531 C 276.269531 774.550781 281.761719 776.070312 287.292969 777.457031 C 292.824219 778.84375 298.386719 780.09375 303.980469 781.203125 C 309.574219 782.316406 315.1875 783.292969 320.828125 784.128906 C 326.46875 784.964844 332.128906 785.664062 337.800781 786.222656 C 343.476562 786.78125 349.164062 787.199219 354.859375 787.480469 C 360.554688 787.757812 366.25 787.898438 371.953125 787.898438 C 377.65625 787.898438 383.355469 787.757812 389.050781 787.480469 C 394.746094 787.199219 400.429688 786.78125 406.105469 786.222656 C 411.78125 785.664062 417.4375 784.964844 423.078125 784.128906 C 428.71875 783.292969 434.335938 782.316406 439.929688 781.203125 C 445.519531 780.09375 451.082031 778.84375 456.613281 777.457031 C 462.144531 776.070312 467.640625 774.550781 473.097656 772.894531 C 478.554688 771.242188 483.964844 769.453125 489.335938 767.53125 C 494.703125 765.609375 500.023438 763.558594 505.292969 761.378906 C 510.558594 759.195312 515.769531 756.886719 520.925781 754.445312 C 526.082031 752.007812 531.171875 749.445312 536.199219 746.757812 C 541.230469 744.070312 546.191406 741.261719 551.082031 738.328125 C 555.972656 735.398438 560.789062 732.347656 565.53125 729.179688 C 570.269531 726.011719 574.929688 722.730469 579.511719 719.332031 C 584.089844 715.933594 588.585938 712.429688 592.992188 708.808594 C 597.402344 705.191406 601.71875 701.46875 605.941406 697.640625 C 610.167969 693.8125 614.296875 689.878906 618.328125 685.847656 C 622.359375 681.816406 626.292969 677.6875 630.121094 673.460938 C 633.949219 669.238281 637.671875 664.921875 641.292969 660.511719 C 644.910156 656.105469 648.414062 651.609375 651.8125 647.03125 C 655.210938 642.449219 658.492188 637.789062 661.660156 633.046875 C 664.828125 628.308594 667.878906 623.492188 670.808594 618.601562 C 673.742188 613.710938 676.550781 608.75 679.238281 603.71875 C 681.925781 598.691406 684.488281 593.597656 686.925781 588.445312 C 689.367188 583.289062 691.675781 578.078125 693.859375 572.808594 C 696.039062 567.542969 698.089844 562.222656 700.011719 556.855469 C 701.933594 551.484375 703.722656 546.074219 705.378906 540.617188 C 707.03125 535.160156 708.554688 529.664062 709.9375 524.132812 C 711.324219 518.601562 712.574219 513.039062 713.683594 507.449219 C 714.796875 501.855469 715.773438 496.238281 716.609375 490.597656 C 717.445312 484.957031 718.144531 479.300781 718.703125 473.625 C 719.261719 467.949219 719.679688 462.265625 719.960938 456.570312 C 720.242188 450.875 720.378906 445.175781 720.378906 439.472656 C 720.375 433.773438 720.226562 428.074219 719.941406 422.382812 C 719.65625 416.6875 719.230469 411.007812 718.667969 405.332031 C 718.101562 399.660156 717.398438 394.007812 716.558594 388.367188 C 715.714844 382.730469 714.738281 377.117188 713.621094 371.527344 C 712.503906 365.9375 711.25 360.378906 709.859375 354.847656 C 708.46875 349.320312 706.945312 343.828125 705.289062 338.375 C 703.628906 332.921875 701.839844 327.511719 699.914062 322.144531 C 697.992188 316.777344 695.9375 311.464844 693.75 306.199219 C 691.566406 300.933594 689.253906 295.722656 686.816406 290.570312 C 684.375 285.421875 681.8125 280.332031 679.121094 275.304688 C 676.433594 270.277344 673.621094 265.320312 670.6875 260.433594 C 667.757812 255.542969 664.707031 250.730469 661.539062 245.992188 C 658.371094 241.253906 655.085938 236.59375 651.691406 232.015625 C 648.292969 227.4375 644.785156 222.945312 641.167969 218.539062 C 637.550781 214.136719 633.828125 209.820312 630 205.597656 C 626.171875 201.375 622.242188 197.246094 618.210938 193.214844 C 614.179688 189.183594 610.054688 185.253906 605.832031 181.425781 C 601.605469 177.597656 597.292969 173.875 592.886719 170.257812 C 588.480469 166.640625 583.988281 163.132812 579.410156 159.738281 C 574.832031 156.339844 570.175781 153.058594 565.433594 149.890625 C 560.695312 146.722656 555.882812 143.671875 550.996094 140.738281 C 546.105469 137.804688 541.148438 134.996094 536.121094 132.304688 C 531.097656 129.617188 526.007812 127.050781 520.855469 124.613281 C 515.703125 122.171875 510.496094 119.859375 505.230469 117.675781 C 499.964844 115.492188 494.648438 113.4375 489.28125 111.511719 C 483.917969 109.589844 478.507812 107.796875 473.050781 106.140625 C 467.597656 104.480469 462.109375 102.957031 456.578125 101.566406 C 451.050781 100.179688 445.492188 98.925781 439.902344 97.808594 C 434.3125 96.691406 428.695312 95.710938 423.058594 94.871094 C 417.421875 94.027344 411.765625 93.324219 406.09375 92.761719 C 400.421875 92.195312 394.738281 91.769531 389.042969 91.484375 C 383.351562 91.199219 377.65625 91.054688 371.953125 91.046875 Z M 371.953125 745.921875 C 366.9375 745.921875 361.925781 745.796875 356.917969 745.550781 C 351.910156 745.304688 346.910156 744.9375 341.917969 744.445312 C 336.925781 743.953125 331.949219 743.339844 326.988281 742.601562 C 322.027344 741.867188 317.089844 741.011719 312.167969 740.03125 C 307.25 739.054688 302.359375 737.953125 297.492188 736.734375 C 292.628906 735.519531 287.796875 734.179688 282.996094 732.722656 C 278.199219 731.269531 273.4375 729.695312 268.714844 728.007812 C 263.992188 726.316406 259.316406 724.511719 254.683594 722.59375 C 250.046875 720.671875 245.464844 718.640625 240.929688 716.496094 C 236.398438 714.351562 231.917969 712.097656 227.496094 709.734375 C 223.074219 707.371094 218.710938 704.898438 214.410156 702.320312 C 210.105469 699.742188 205.871094 697.0625 201.703125 694.273438 C 197.53125 691.488281 193.433594 688.601562 189.402344 685.613281 C 185.375 682.625 181.421875 679.542969 177.546875 676.359375 C 173.667969 673.179688 169.875 669.902344 166.15625 666.535156 C 162.441406 663.167969 158.808594 659.710938 155.261719 656.164062 C 151.71875 652.617188 148.261719 648.984375 144.890625 645.269531 C 141.523438 641.554688 138.25 637.757812 135.066406 633.878906 C 131.886719 630.003906 128.800781 626.050781 125.8125 622.023438 C 122.828125 617.996094 119.9375 613.894531 117.152344 609.726562 C 114.367188 605.554688 111.683594 601.320312 109.105469 597.019531 C 106.527344 592.714844 104.054688 588.355469 101.691406 583.929688 C 99.328125 579.507812 97.074219 575.03125 94.929688 570.496094 C 92.785156 565.960938 90.753906 561.378906 88.835938 556.746094 C 86.914062 552.113281 85.109375 547.433594 83.421875 542.710938 C 81.730469 537.988281 80.160156 533.230469 78.703125 528.429688 C 77.246094 523.628906 75.910156 518.796875 74.691406 513.933594 C 73.472656 509.070312 72.375 504.175781 71.394531 499.257812 C 70.417969 494.339844 69.558594 489.398438 68.824219 484.4375 C 68.089844 479.476562 67.476562 474.5 66.984375 469.511719 C 66.492188 464.519531 66.121094 459.519531 65.875 454.507812 C 65.628906 449.5 65.507812 444.488281 65.507812 439.472656 C 65.507812 434.457031 65.628906 429.445312 65.875 424.4375 C 66.121094 419.425781 66.492188 414.425781 66.984375 409.4375 C 67.476562 404.445312 68.089844 399.46875 68.824219 394.507812 C 69.558594 389.546875 70.417969 384.605469 71.394531 379.6875 C 72.375 374.769531 73.472656 369.878906 74.691406 365.011719 C 75.910156 360.148438 77.246094 355.316406 78.703125 350.515625 C 80.160156 345.714844 81.730469 340.957031 83.421875 336.234375 C 85.109375 331.511719 86.914062 326.835938 88.835938 322.199219 C 90.753906 317.566406 92.785156 312.984375 94.929688 308.449219 C 97.074219 303.917969 99.328125 299.4375 101.691406 295.015625 C 104.054688 290.589844 106.527344 286.230469 109.105469 281.925781 C 111.683594 277.625 114.367188 273.390625 117.152344 269.21875 C 119.941406 265.050781 122.828125 260.949219 125.8125 256.921875 C 128.800781 252.894531 131.886719 248.941406 135.066406 245.066406 C 138.25 241.1875 141.523438 237.390625 144.890625 233.675781 C 148.261719 229.960938 151.71875 226.328125 155.265625 222.78125 C 158.808594 219.234375 162.441406 215.777344 166.15625 212.410156 C 169.875 209.042969 173.667969 205.769531 177.546875 202.585938 C 181.421875 199.40625 185.375 196.320312 189.402344 193.332031 C 193.433594 190.34375 197.53125 187.457031 201.703125 184.671875 C 205.871094 181.886719 210.109375 179.203125 214.410156 176.625 C 218.710938 174.046875 223.074219 171.574219 227.496094 169.210938 C 231.917969 166.847656 236.398438 164.59375 240.929688 162.449219 C 245.464844 160.304688 250.050781 158.273438 254.683594 156.351562 C 259.316406 154.433594 263.992188 152.628906 268.714844 150.9375 C 273.4375 149.25 278.199219 147.675781 282.996094 146.222656 C 287.796875 144.765625 292.628906 143.429688 297.492188 142.210938 C 302.359375 140.992188 307.25 139.890625 312.167969 138.914062 C 317.089844 137.9375 322.027344 137.078125 326.988281 136.34375 C 331.949219 135.605469 336.925781 134.992188 341.917969 134.5 C 346.910156 134.011719 351.910156 133.640625 356.917969 133.394531 C 361.925781 133.148438 366.9375 133.027344 371.953125 133.027344 C 376.96875 133.027344 381.980469 133.148438 386.992188 133.394531 C 392 133.640625 397 134.011719 401.992188 134.5 C 406.984375 134.992188 411.957031 135.605469 416.917969 136.34375 C 421.878906 137.078125 426.820312 137.9375 431.738281 138.914062 C 436.660156 139.890625 441.550781 140.992188 446.414062 142.210938 C 451.28125 143.429688 456.113281 144.765625 460.910156 146.222656 C 465.710938 147.675781 470.472656 149.25 475.195312 150.9375 C 479.914062 152.628906 484.59375 154.433594 489.226562 156.351562 C 493.859375 158.273438 498.445312 160.304688 502.976562 162.449219 C 507.511719 164.59375 511.988281 166.847656 516.414062 169.210938 C 520.835938 171.574219 525.199219 174.046875 529.5 176.625 C 533.800781 179.203125 538.039062 181.886719 542.207031 184.671875 C 546.378906 187.457031 550.476562 190.34375 554.503906 193.332031 C 558.53125 196.320312 562.484375 199.40625 566.363281 202.585938 C 570.238281 205.769531 574.035156 209.042969 577.75 212.410156 C 581.46875 215.777344 585.097656 219.234375 588.644531 222.78125 C 592.191406 226.328125 595.648438 229.960938 599.015625 233.675781 C 602.386719 237.390625 605.660156 241.1875 608.839844 245.066406 C 612.023438 248.941406 615.109375 252.894531 618.09375 256.921875 C 621.082031 260.949219 623.96875 265.050781 626.757812 269.21875 C 629.542969 273.390625 632.226562 277.625 634.804688 281.929688 C 637.382812 286.230469 639.851562 290.59375 642.21875 295.015625 C 644.582031 299.4375 646.835938 303.917969 648.980469 308.449219 C 651.125 312.984375 653.15625 317.566406 655.074219 322.199219 C 656.992188 326.835938 658.796875 331.511719 660.488281 336.234375 C 662.175781 340.957031 663.75 345.71875 665.207031 350.515625 C 666.660156 355.316406 668 360.148438 669.21875 365.011719 C 670.4375 369.878906 671.535156 374.769531 672.511719 379.6875 C 673.492188 384.605469 674.347656 389.546875 675.085938 394.507812 C 675.820312 399.46875 676.433594 404.445312 676.925781 409.4375 C 677.417969 414.425781 677.785156 419.425781 678.03125 424.4375 C 678.277344 429.445312 678.402344 434.457031 678.402344 439.472656 C 678.394531 444.488281 678.269531 449.496094 678.015625 454.503906 C 677.765625 459.511719 677.390625 464.511719 676.894531 469.5 C 676.398438 474.488281 675.78125 479.460938 675.039062 484.421875 C 674.300781 489.378906 673.4375 494.316406 672.457031 499.234375 C 671.472656 504.152344 670.371094 509.039062 669.148438 513.902344 C 667.929688 518.765625 666.585938 523.59375 665.128906 528.390625 C 663.671875 533.1875 662.09375 537.945312 660.402344 542.667969 C 658.710938 547.386719 656.902344 552.0625 654.984375 556.691406 C 653.0625 561.324219 651.027344 565.902344 648.882812 570.433594 C 646.734375 574.964844 644.480469 579.441406 642.113281 583.863281 C 639.75 588.285156 637.277344 592.644531 634.699219 596.945312 C 632.121094 601.242188 629.4375 605.476562 626.648438 609.644531 C 623.863281 613.8125 620.976562 617.910156 617.988281 621.9375 C 615 625.960938 611.917969 629.914062 608.734375 633.789062 C 605.554688 637.664062 602.28125 641.457031 598.914062 645.171875 C 595.546875 648.886719 592.089844 652.519531 588.542969 656.0625 C 585 659.609375 581.371094 663.066406 577.65625 666.433594 C 573.941406 669.800781 570.144531 673.074219 566.269531 676.253906 C 562.394531 679.4375 558.445312 682.519531 554.417969 685.507812 C 550.390625 688.496094 546.292969 691.382812 542.125 694.167969 C 537.957031 696.957031 533.722656 699.636719 529.425781 702.21875 C 525.125 704.796875 520.765625 707.269531 516.34375 709.632812 C 511.921875 712 507.449219 714.253906 502.917969 716.402344 C 498.386719 718.546875 493.804688 720.582031 489.171875 722.5 C 484.542969 724.421875 479.867188 726.230469 475.148438 727.921875 C 470.425781 729.613281 465.667969 731.1875 460.871094 732.648438 C 456.074219 734.105469 451.246094 735.445312 446.382812 736.667969 C 441.519531 737.890625 436.632812 738.992188 431.714844 739.976562 C 426.796875 740.957031 421.859375 741.816406 416.902344 742.558594 C 411.945312 743.296875 406.96875 743.917969 401.980469 744.414062 C 396.992188 744.910156 391.992188 745.285156 386.984375 745.535156 C 381.976562 745.785156 376.96875 745.914062 371.953125 745.921875 Z M 400.816406 439.472656 C 400.816406 440.417969 400.769531 441.363281 400.675781 442.300781 C 400.582031 443.242188 400.445312 444.175781 400.261719 445.105469 C 400.074219 446.03125 399.847656 446.945312 399.570312 447.851562 C 399.296875 448.753906 398.980469 449.644531 398.617188 450.519531 C 398.257812 451.390625 397.851562 452.246094 397.40625 453.078125 C 396.960938 453.910156 396.476562 454.722656 395.949219 455.507812 C 395.425781 456.292969 394.863281 457.050781 394.265625 457.78125 C 393.664062 458.511719 393.03125 459.210938 392.363281 459.882812 C 391.695312 460.550781 390.992188 461.183594 390.261719 461.78125 C 389.53125 462.382812 388.773438 462.945312 387.988281 463.46875 C 387.203125 463.996094 386.394531 464.480469 385.558594 464.925781 C 384.726562 465.371094 383.871094 465.777344 383 466.136719 C 382.125 466.5 381.238281 466.816406 380.332031 467.089844 C 379.425781 467.367188 378.511719 467.59375 377.585938 467.78125 C 376.65625 467.964844 375.722656 468.101562 374.78125 468.195312 C 373.84375 468.289062 372.898438 468.335938 371.953125 468.335938 C 371.007812 468.335938 370.066406 468.289062 369.125 468.195312 C 368.183594 468.101562 367.25 467.964844 366.324219 467.78125 C 365.398438 467.59375 364.480469 467.367188 363.578125 467.089844 C 362.671875 466.816406 361.78125 466.5 360.910156 466.136719 C 360.035156 465.777344 359.183594 465.371094 358.347656 464.925781 C 357.515625 464.480469 356.707031 463.996094 355.921875 463.46875 C 355.132812 462.945312 354.375 462.382812 353.644531 461.78125 C 352.914062 461.183594 352.214844 460.550781 351.546875 459.882812 C 350.878906 459.210938 350.246094 458.511719 349.644531 457.78125 C 349.042969 457.050781 348.484375 456.292969 347.957031 455.507812 C 347.433594 454.722656 346.945312 453.910156 346.5 453.078125 C 346.054688 452.246094 345.652344 451.390625 345.289062 450.519531 C 344.929688 449.644531 344.609375 448.753906 344.335938 447.851562 C 344.0625 446.945312 343.832031 446.03125 343.648438 445.105469 C 343.464844 444.175781 343.324219 443.242188 343.234375 442.300781 C 343.140625 441.363281 343.09375 440.417969 343.09375 439.472656 C 343.09375 438.527344 343.140625 437.585938 343.234375 436.644531 C 343.324219 435.703125 343.464844 434.769531 343.648438 433.84375 C 343.832031 432.914062 344.0625 432 344.335938 431.09375 C 344.609375 430.191406 344.929688 429.300781 345.289062 428.429688 C 345.652344 427.554688 346.054688 426.703125 346.5 425.867188 C 346.945312 425.035156 347.433594 424.226562 347.957031 423.4375 C 348.484375 422.652344 349.042969 421.894531 349.644531 421.164062 C 350.246094 420.433594 350.878906 419.734375 351.546875 419.066406 C 352.214844 418.398438 352.914062 417.761719 353.644531 417.164062 C 354.375 416.5625 355.132812 416 355.921875 415.476562 C 356.707031 414.953125 357.515625 414.464844 358.347656 414.019531 C 359.183594 413.574219 360.035156 413.171875 360.910156 412.808594 C 361.78125 412.449219 362.671875 412.128906 363.578125 411.855469 C 364.480469 411.582031 365.398438 411.351562 366.324219 411.167969 C 367.25 410.984375 368.183594 410.84375 369.125 410.75 C 370.066406 410.660156 371.007812 410.613281 371.953125 410.613281 C 372.898438 410.613281 373.839844 410.660156 374.78125 410.753906 C 375.722656 410.847656 376.65625 410.988281 377.582031 411.171875 C 378.507812 411.359375 379.421875 411.589844 380.328125 411.863281 C 381.230469 412.140625 382.121094 412.457031 382.992188 412.820312 C 383.867188 413.183594 384.71875 413.585938 385.550781 414.03125 C 386.382812 414.476562 387.195312 414.960938 387.980469 415.488281 C 388.765625 416.011719 389.523438 416.574219 390.253906 417.175781 C 390.984375 417.773438 391.683594 418.410156 392.351562 419.078125 C 393.019531 419.746094 393.652344 420.445312 394.253906 421.175781 C 394.851562 421.90625 395.414062 422.664062 395.941406 423.449219 C 396.464844 424.234375 396.949219 425.042969 397.394531 425.875 C 397.84375 426.707031 398.246094 427.5625 398.609375 428.433594 C 398.96875 429.308594 399.289062 430.195312 399.5625 431.101562 C 399.839844 432.003906 400.070312 432.917969 400.253906 433.84375 C 400.4375 434.773438 400.578125 435.707031 400.671875 436.644531 C 400.765625 437.585938 400.8125 438.527344 400.816406 439.472656 Z M 400.816406 439.472656 " fill-opacity="1" fill-rule="nonzero"/></g><path stroke-linecap="round" transform="matrix(-0.540614, -0.540614, 0.540295, -0.540295, 374.262054, 1199.990728)" fill="none" stroke-linejoin="miter" d="M 32.503208 32.500113 L 628.12177 32.500113 " stroke="#000000" stroke-width="65" stroke-opacity="1" stroke-miterlimit="4"/><path stroke-linecap="round" transform="matrix(-0.54014, 0.54014, -0.540295, -0.540295, 732.652872, 843.684984)" fill="none" stroke-linejoin="miter" d="M 32.499476 32.499935 L 619.695679 32.499935 " stroke="#000000" stroke-width="65" stroke-opacity="1" stroke-miterlimit="4"/></svg>